<<<<<<< HEAD
<<<<<<< HEAD
<?xml version="1.0" standalone="no"?>
<!DOCTYPE svg PUBLIC "-//W3C//DTD SVG 1.1//EN" "http://www.w3.org/Graphics/SVG/1.1/DTD/svg11.dtd" >
<svg xmlns="http://www.w3.org/2000/svg">
<metadata>
This is a custom SVG font generated by IcoMoon.
<iconset id="Simple Line Icons" name="Simple Line Icons" href="http://graphicburger.com/" grid="16"></iconset><author name="Raul Taciu" href="http://graphicburger.com/"></author><license name="Custom" href="http://graphicburger.com/license/"></license>
</metadata>
<defs>
<font id="Simple-Line-Icons" horiz-adv-x="512" >
<font-face units-per-em="512" ascent="480" descent="-32" />
<missing-glyph horiz-adv-x="512" />
<glyph class="hidden" unicode="&#xf000;" d="M0,480L 512 -32L0 -32 z" horiz-adv-x="0" />
<glyph unicode="&#xe000;" d="M 480.016,78.656l-139.248,66.032c 18.576,9.312, 91.128,12.264, 97.128,28.64c0,0-28.672,44.008-35.672,101.168
	c-2.72,22.184-7.376,51.296-12,92.296C 382.72,433.296, 326.784,480, 256.128,480C 256.088,480, 256.040,480, 256,480c-0.048,0-0.096,0-0.128,0
	C 185.216,480, 129.28,433.296, 121.784,366.8c-4.624-41-9.28-70.112-12-92.296c-7-57.168-35.672-101.168-35.672-101.168
	c 6-16.376, 78.544-19.328, 97.128-28.64L 31.984,78.656c0,0-31.984-11.232-31.984-37.736l0-42.264 C0-19.032, 14.312-32, 31.984-32l 448.032,0 
	C 497.688-32, 512-19.032, 512-1.344l0,42.264 C 512,67.424, 480.016,78.656, 480.016,78.656z M 32,0l0,40.92 c0,1.704, 6.048,5.8, 10.968,7.672
	c 1.064,0.376, 1.72,0.672, 2.72,1.16l 139.248,66.032c 11.064,5.232, 18.16,16.344, 18.296,28.576c 0.128,12.232-6.72,23.488-17.656,28.968
	c-10.84,5.44-25.168,8.128-47.624,12.016c-5.328,0.936-12.608,2.248-19.672,3.656c 9.16,20.552, 19.28,49.296, 23.264,81.816
	c 0.984,8.096, 2.248,17.208, 3.656,27.296c 2.424,17.168, 5.424,38.936, 8.376,65.112C 159.16,412.656, 201.216,448, 255.872,448c 0.032,0, 0.080,0, 0.128,0
	c 0.040,0, 0.088,0, 0.128,0c 54.656,0, 96.72-35.344, 102.296-84.784c 2.952-26.168, 5.952-47.944, 8.376-65.112
	c 1.408-10.088, 2.672-19.2, 3.656-27.296c 3.984-32.512, 14.112-61.256, 23.264-81.816c-7.064-1.408-14.344-2.72-19.672-3.656
	c-22.456-3.888-36.784-6.576-47.624-12.016c-10.936-5.488-17.784-16.736-17.656-28.968c 0.144-12.232, 7.232-23.344, 18.296-28.576l 139.248-66.032
	c 1-0.488, 1.656-0.784, 2.72-1.16c 4.92-1.872, 10.248-5.968, 10.968-7.672L 480.016,0L 32,0 z"  />
<glyph unicode="&#xe002;" d="M 32.032,32.656c0,12.72, 9.544,16.704, 13.36,18.472l 140.52,66.312
			c 10.072,4.624, 17.024,14.16, 18.376,25.16c 1.36,11-3.080,21.92-11.728,28.856c-33.24,26.688-48.728,85.344-48.728,116.592L 143.832,368 
			c0,33.432, 58.2,79.928, 112.064,79.928c 54.336,0, 111.96-45.768, 111.96-79.928l0-79.96 c0-30.776-12.8-89.656-47.128-116.68
			c-8.752-6.888-13.296-17.84-11.984-28.904c 1.312-11.080, 8.296-20.656, 18.424-25.312l 47.96-22.752l 7.904,31.936l-42.504,19.888
			c 44.328,34.888, 59.328,103.416, 59.328,141.824L 399.856,368 c0,52.96-73.312,111.928-143.96,111.928c-70.656,0-144.064-58.968-144.064-111.928l0-79.96 
			c0-34.936, 15.944-105.624, 60.696-141.544L 32.008,80.184c0,0-31.976-14.248-31.976-31.984l0-48.016 c0-17.672, 14.32-31.984, 31.976-31.984l 351.96,0 l0,32 
			L 32.032,0.184L 32.032,32.656 z M 495.968,64.064l-48,0 l0,48 c0,8.84-7.168,16-16,16s-16-7.16-16-16l0-48 l-48,0 c-8.832,0-16-7.16-16-16c0-8.832, 7.168-16, 16-16l 48,0 l0-48 
			c0-8.832, 7.168-16, 16-16s 16,7.168, 16,16l0,48 l 48,0 c 8.832,0, 16,7.168, 16,16C 511.968,56.904, 504.808,64.064, 495.968,64.064z"  />
<glyph unicode="&#xe003;" d="M 31.752,0.12l0,32.472 c0,12.72, 9.552,16.712, 13.36,18.472l 140.52,66.312
			c 10.072,4.624, 17.024,14.16, 18.376,25.16c 1.36,11-3.080,21.92-11.728,28.856c-33.24,26.688-48.728,85.352-48.728,116.592l0,79.96 
			c0,33.432, 58.2,79.928, 112.064,79.928c 54.336,0, 111.968-45.768, 111.968-79.928l0-79.96 c0-30.776-12.8-89.656-47.128-116.688
			c-8.752-6.888-13.296-17.84-11.984-28.904c 1.312-11.080, 8.296-20.656, 18.424-25.312l 81.12-38.624l 19.072,27.032l-86.832,40.672
			c 44.328,34.888, 59.328,103.424, 59.328,141.832l0,79.96 c0,52.96-73.312,111.928-143.968,111.928c-70.656,0-144.064-58.968-144.064-111.928l0-79.96 
			c0-34.936, 15.944-105.624, 60.696-141.544L 31.728,80.12c0,0-31.976-14.248-31.976-31.984l0-48.016 c0-17.672, 14.32-31.984, 31.976-31.984l 319.856,0 
			l-26,31.992L 31.752,0.12z M 506.104,118.248c-6.952,5.456-17.016,4.216-22.456-2.736l-68.424-104.352l-42.528,42.536
			c-6.248,6.248-16.384,6.248-22.632,0s-6.248-16.376,0-22.624l 56.568-56.568c 6.248-6.248, 16.376-6.248, 22.624,0
			c 1.52,1.512, 2.656,3.272, 3.44,5.144l 76.152,116.152C 514.288,102.752, 513.064,112.808, 506.104,118.248z"  />
<glyph unicode="&#xe004;" d="M 399.56,288.072l0,79.96 c0,52.96-73.304,111.928-143.952,111.928c-70.656,0-144.064-58.968-144.064-111.928l0-79.96 
			c0-34.936, 15.944-105.616, 60.696-141.536L 31.72,80.216c0,0-31.976-14.248-31.976-31.984l0-48.016 c0-17.672, 14.32-31.984, 31.976-31.984l 303.968,0 l0,32 
			L 31.744,0.216l0,32.472 c0,12.72, 9.552,16.712, 13.36,18.472l 140.52,66.312c 10.072,4.624, 17.024,14.168, 18.376,25.168
			c 1.36,11-3.080,21.912-11.728,28.848c-33.24,26.688-48.728,85.344-48.728,116.6l0,79.96 c0,33.432, 58.2,79.928, 112.064,79.928
			c 54.344,0, 111.952-45.768, 111.952-79.928l0-79.96 c0-30.776-12.8-89.664-47.112-116.68c-8.768-6.88-13.312-17.832-11.984-28.896
			c 1.296-11.080, 8.28-20.656, 18.424-25.312l 9.056-4.176l 14.032,25.896l-9.744,7.36C 384.56,181.144, 399.56,249.664, 399.56,288.072z
			 M 462.312,40.6l 45.248,45.256c 6.248,6.232, 6.248,16.376,0,22.624c-6.24,6.24-16.376,6.24-22.616,0l-45.256-45.264l-45.248,45.264
			c-6.248,6.24-16.384,6.24-22.624,0c-6.248-6.248-6.248-16.392,0-22.624l 45.248-45.256l-45.248-45.248c-6.248-6.24-6.248-16.384,0-22.632
			c 6.24-6.232, 16.376-6.232, 22.624,0l 45.248,45.256l 45.256-45.256c 6.24-6.232, 16.376-6.232, 22.616,0c 6.248,6.248, 6.248,16.392,0,22.632
			L 462.312,40.6z"  />
<glyph unicode="&#xe006;" d="M 367.904,16.064L 142.936,16.064 c-8.84,0-16-7.16-16-16s 7.16-16, 16-16l 224.968,0 c 8.84,0, 16,7.16, 16,16S 376.752,16.064, 367.904,16.064z
			 M 508.656,419.184c-1.512,7.44-8.080,12.784-15.672,12.784l-78.312,0 L 414.672,447.936 c0,8.84-7.16,16-16,16L 110.904,463.936 c-8.84,0-16-7.16-16-16l0-15.968 L 19.016,431.968 
			c-7.592,0-14.16-5.344-15.672-12.784c-0.472-2.312-11.2-58.376, 19.952-96.576c 17.92-21.96, 45.304-33.464, 81.248-34.488
			C 125.040,227.544, 176.576,182.688, 238.64,176l0-111.456 l-47.888,0 c-8.84,0-16-7.16-16-16s 7.16-16, 16-16l 129.344,0 c 8.84,0, 16,7.16, 16,16s-7.16,16-16,16
			L 270.64,64.544 l0,111.44 c 62.168,6.56, 113.816,51.4, 134.368,112.040c 37.168,0.544, 65.368,12.12, 83.696,34.584
			C 519.856,360.816, 509.128,416.872, 508.656,419.184z M 48.2,342.72c-14.168,17.248-15.592,42.704-14.872,57.248l 61.576,0 l0-54.016 
			c0-8.648, 0.8-17.080, 1.968-25.384C 75.032,322.608, 58.648,329.984, 48.2,342.72z M 382.672,345.952c0-76.544-57.36-138.832-127.856-138.832
			c-70.528,0-127.904,62.28-127.904,138.832L 126.912,431.936 l 255.768,0 L 382.68,345.952 z M 463.8,342.72c-10.84-13.216-28.016-20.744-51.136-22.432
			c 1.192,8.392, 2.008,16.92, 2.008,25.664l0,54.016 l 64,0 C 479.392,385.408, 477.968,359.968, 463.8,342.72z"  />
<glyph unicode="&#xe010;" d="M 352.072,480L 159.928,480 c-26.512,0-48-21.488-48-48l0-416 c0-26.512, 21.488-48, 48-48l 192.144,0 
			c 26.512,0, 48,21.488, 48,48L 400.072,432 C 400.072,458.512, 378.584,480, 352.072,480z M 368.072,16c0-8.832-7.168-16-16-16L 159.928,0 c-8.832,0-16,7.168-16,16L 143.928,432 
			c0,8.832, 7.168,16, 16,16l 192.144,0 c 8.832,0, 16-7.168, 16-16L 368.072,16 z M 256.024,79.912c-17.64,0-31.92-14.296-31.92-31.912s 14.288-31.92, 31.92-31.92
			c 17.64,0, 31.92,14.304, 31.92,31.92S 273.664,79.912, 256.024,79.912z M 288.024,432l-64,0 c-8.832,0-16-7.168-16-16s 7.168-16, 16-16l 64,0 
			c 8.832,0, 16,7.168, 16,16S 296.856,432, 288.024,432z"  />
<glyph unicode="&#xe011;" d="M 480,432.096L 32,432.096 c-17.592,0-32-14.4-32-32L0,128 c0-17.592, 14.408-31.992, 32-31.992l 208,0 l0-48.104 L 160,47.904 
			c-8.832,0-16-7.168-16-16s 7.168-16, 16-16l 192,0 c 8.832,0, 16,7.168, 16,16s-7.168,16-16,16L 272,47.904 l0,48.104 l 208,0 c 17.592,0, 32,14.4, 32,31.992L 512,400.096 
			C 512,417.696, 497.592,432.096, 480,432.096z M 480,128L 32,128 L 32,400.096 l 448,0 L 480,128 z"  />
<glyph unicode="&#xe012;" d="M 467.16,447.048L 467.16,447.048c 5.216,0, 8.888-0.968, 10.8-1.704c 2.296-6.112, 5.376-28.016-17.264-50.672L 355.36,289.344l-10.16-10.16
	l 0.832-14.328c 1.752-29.984, 5-83.72, 7.8-129.784c 2.472-41, 4.816-79.72, 4.968-83.016c 0.080-2.264, 0.112-2.8-2-5.344
	c-4.72-5.736-13.528-15.456-20.952-23.512c-11.512,31.016-35.704,96.528-49.064,133.2l-17.168,47.184l-35.512-35.512L 168.8,105.28l-9.096-9.080
	l-0.28-12.84c-0.216-10.248-0.168-28.64-0.144-44.856c 0.032-11.296, 0.064-21.56-0.016-27.216c-0.144-0.264, 2.184-0.576, 1.968-0.952
	c-1.392,2.232-2.888,4.64-4.472,7.144c-13.168,21-31.392,50.048-36.952,59.112l-4.064,6.64l-6.672,4.032
	c-24.264,14.656-51.144,31.576-67.544,42.144C 42.096,129.736, 42.56,128, 42.936,128.2L 44,128.2 c 5.16,0, 13.688-0.112, 23.248-0.248
	c 12.504-0.168, 26.688-0.376, 37.544-0.376c 4.16,0, 7.856,0.032, 10.832,0.096l 12.84,0.296l 9.080,9.080l 62.872,64.856l 35.392,35.376l-46.968,17.28
	c-35.296,12.984-102.904,38.232-134.528,50.112c 8.112,7.472, 17.888,16.344, 23.592,21.064c 1.592,1.312, 2.832,1.984, 3.688,1.984l 1.128-0.032
	c 3.528-0.168, 47.344-3.032, 89.704-5.8c 44.968-2.936, 95.72-6.248, 124.576-8.080l 14.424-0.904l 10.216,10.216L 426.936,428.424
	C 443.16,444.624, 459.096,447.048, 467.16,447.048 M 467.16,479.048c-18.904,0-42.112-7.264-62.84-28L 299.016,345.752
	c-59.312,3.752-211.216,13.8-214.984,13.904c-0.672,0.032-1.504,0.064-2.44,0.064c-5.128,0-13.984-0.984-24.064-9.312
	c-11.832-9.784-36.504-32.984-36.504-32.984c-5.952-5.968-8.968-13.36-8.248-20.312c 0.44-4.2, 2.72-11.856, 13.032-15.888
	c 6.264-2.456, 105.952-39.752, 151.984-56.688l-62.872-64.856c-2.784-0.064-6.232-0.096-10.128-0.096c-19.168,0-48.888,0.624-60.8,0.624
	c-1.576,0-2.84,0-3.736-0.032c-3.624-0.112-11.128,1.672-30.92-14.872l-1.408-1.312c-5.936-5.936-7.328-11.856-7.456-15.768
	c-0.128-4.032, 0.952-9.84, 6.784-14.512c 3.504-2.832, 48.424-31.592, 85.264-53.84c 8.832-14.408, 49.472-79, 51.592-82.504
	c 3.096-5.232, 8.16-8.216, 14.216-8.408c 0.168,0, 0.328,0, 0.504,0c 5.888,0, 11.936,2.92, 17.856,8.672c 16.752,19.592, 14.44,27.704, 14.512,31.112
	c 0.264,10.688-0.184,55.968, 0.2,73.92l 65.296,62.8c 16.688-45.84, 53.168-144.504, 55.608-150.784c 4.064-10.312, 11.72-12.576, 15.92-13
	c 0.688-0.080, 1.392-0.112, 2.080-0.112c 6.312,0, 12.856,2.968, 18.216,8.328c0,0, 23.128,24.544, 32.952,36.488
	c 9.84,11.936, 9.456,22.128, 9.264,26.936c-0.080,3.328-9.344,154.408-12.784,213.408l 105.328,105.328c 37.328,37.344, 31.392,82.344, 17.528,96.184
	C 494.688,474.392, 482.296,479.048, 467.16,479.048L 467.16,479.048z"  />
<glyph unicode="&#xe013;" d="M 424.576,480L 105.576,480 C 82.576,480, 72.56,463, 72.56,447l0-63.656 L 55.096,383.344 c-8.656,0-15.672-7.016-15.672-15.672S 46.44,352, 55.096,352L 72.56,352 
			l0-64.376 L 56.592,287.624 c-8.656,0-15.672-7.016-15.672-15.672s 7.016-15.672, 15.672-15.672L 72.56,256.28 l0-64.72 L 56.248,191.56 c-8.656,0-15.672-7.016-15.672-15.672
			s 7.016-15.672, 15.672-15.672L 72.56,160.216 l0-64.232 L 56.248,95.984 c-8.656,0-15.672-7.016-15.672-15.672s 7.016-15.672, 15.672-15.672L 72.56,64.64 L 72.56,0 
			c0-26.512, 20.768-32, 32.264-32l 319.752,0 c 26.512,0, 48,21.488, 48,48L 472.576,432 C 472.576,458.512, 451.096,480, 424.576,480z M 104.56,0l0,64.64 l 16.672,0 
			c 8.656,0, 15.672,7.016, 15.672,15.672s-7.016,15.672-15.672,15.672L 104.56,95.984 l0,64.232 l 16.672,0 c 8.656,0, 15.672,7.016, 15.672,15.672
			s-7.016,15.672-15.672,15.672L 104.56,191.56 l0,64.72 l 17.016,0 c 8.656,0, 15.672,7.016, 15.672,15.672s-7.016,15.672-15.672,15.672L 104.56,287.624 L 104.56,352 l 15.512,0 
			c 8.656,0, 15.672,7.016, 15.672,15.672s-7.016,15.672-15.672,15.672L 104.56,383.344 L 104.56,447 c0,0.376, 0.032,0.688, 0.080,0.968
			C 104.888,447.984, 105.2,448, 105.576,448l 255,0 l0-448 L 104.56,0 z M 440.576,16c0-8.832-7.168-16-16-16l-32,0 L 392.576,448 l 32,0 c 8.832,0, 16-7.168, 16-16L 440.576,16 z"  />
<glyph unicode="&#xe014;" d="M 396.424,111.64c-50.672,0-79.432,23.816-98.472,39.576c-6.736,5.576-12.864,10.952-18.44,15.832
	c-8.456,7.424-19,16.672-22.672,17.952c-0.112,0-1.856,0.080-1.968,0.096c-0.584-0.048-2.072-0.344-2.224-0.36
	c-2.536-1.032-11.544-8.784-18.784-15c-6.568-5.64-14.056-12.080-22.52-18.688l-1.544-1.184c-21.736-16.968-48.792-38.080-96.576-38.080
	c-35.496,0-70.464,16.064-91.288,41.936c-13.96,17.344-28.648,47.512-19.336,92.736c 1.128,5.472, 5.008,9.952, 10.216,11.816
	c 5.24,1.888, 11.008,0.856, 15.304-2.688c 0.312-0.232, 11.288-8.672, 29.528-8.672c 9.184,0, 18.752,2.168, 28.416,6.472
	c 16.568,7.376, 28.368,28.064, 40.856,42.032c 17.088,19.080, 36.424,40.704, 68.344,40.952c 22.024,0, 41.896-8.144, 59.624-24.248
	c 17.656,16.032, 37.384,24.128, 58.84,24.128c 32.552-0.248, 52.296-21.888, 69.72-41c 12.72-13.936, 24.736-34.608, 41.304-41.984
	c 9.664-4.296, 19.336-6.472, 28.744-6.472c 18.936,0, 30.752,8.656, 31.224,9.032c 4.384,3.248, 10.16,4.096, 15.24,2.112
	c 5.072-2, 8.84-6.44, 9.856-11.832c 8.544-44.72-6.48-74.704-20.592-91.984C 467.84,127.92, 432.272,111.64, 396.424,111.64z M 255.368,217.064
	c 0.496,0, 1.84-0.048, 2.312-0.096c 0.016,0, 2.344-0.168, 2.344-0.184c 0.168-0.016, 1.504-0.184, 1.648-0.216
	c 11.576-1.64, 22.312-11.064, 38.608-25.344c 5.352-4.704, 11.248-9.872, 17.736-15.248c 17.392-14.408, 39.048-32.328, 78.408-32.328
	c 26.656,0, 52.872,11.816, 68.392,30.84c 10.2,12.488, 15.504,27.36, 15.84,44.392c-7.512-2.344-16.64-4.096-27.16-4.096
	c-13.832,0-27.784,3.096-41.488,9.184c-22.624,10.048-38.152,34.56-51.84,49.576c-17.264,18.936-28.736,30.544-46.040,30.688
	c-23.080,0-37.976-14.528-47.208-25.456c-3.016-3.56-7.408-5.608-12.048-5.608l0,0c-4.64,0-9.040,2.064-12.040,5.624
	c-9.264,10.968-24.208,25.56-46.92,25.56c-17.544-0.128-28.704-11.64-45.496-30.424c-13.528-15.112-28.848-39.736-51.616-49.84
	c-13.696-6.096-27.552-9.184-41.152-9.184c-10.2,0-19.032,1.704-26.312,4.016c-0.016-17.36, 5.056-32.456, 15.168-45.016
	c 14.968-18.576, 40.52-30.128, 66.72-30.128c 37,0, 57.448,15.968, 77.232,31.408L 192,176.392c 8.024,6.264, 15.12,12.376, 21.344,17.72
	c 14.256,12.248, 23.664,20.344, 33.824,22.144l0,0C 247.176,216.248, 252.016,217.064, 255.368,217.064z"  />
<glyph unicode="&#xe015;" d="M 256.792,480c-79.064,0-144.752-64.112-144.752-143.168l0-225.656 
			C 112.040,32.112, 177.728-32, 256.792-32s 143.176,64.112, 143.176,143.168L 399.968,336.832 C 399.968,415.888, 335.856,480, 256.792,480z M 367.968,111.168
			C 367.968,49.872, 318.096,0, 256.792,0s-112.752,49.872-112.752,111.168L 144.040,336.832 C 144.040,398.128, 195.496,448, 256.792,448
			s 111.176-49.872, 111.176-111.168L 367.968,111.168 z M 256.168,384c-8.832,0-16-7.168-16-16l0-80 c0-8.832, 7.168-16, 16-16c 8.832,0, 16,7.168, 16,16L 272.168,368 
			C 272.168,376.832, 265,384, 256.168,384z"  />
<glyph unicode="&#xe016;" d="M 480.144,449.912L 480.144,464.416 c0,8.84-7.16,16-16,16L 351.832,480.416 c-8.84,0-16-7.16-16-16l0-65.328 
			c0-0.024, 0.016-0.048, 0.016-0.072l0-198.76 c0-48.16-27.168-87.328-75.328-87.328s-84.328,39.168-84.328,87.328L 176.192,449.912 l-0.048,0 L 176.144,464.416 
			c0,8.84-7.16,16-16,16L 47.832,480.416 c-8.84,0-16-7.16-16-16l0-65.328 c0-0.328, 0.168-0.6, 0.184-0.92l0-205.248 
			c0-124.456, 99.392-225.328, 223.832-225.328s 224.328,100.872, 224.328,225.328L 480.176,449.912 L 480.144,449.912 z M 448.144,448.416l0-64.168 L 368.016,384.248 L 368.016,448.416 L 448.144,448.416 z
			 M 144.144,448.416l0-64.168 L 64.016,384.248 L 64.016,448.416 L 144.144,448.416 z M 255.84-0.416c-106.608,0-191.832,86.736-191.832,193.328L 64.008,352.248 l 80.168,0 l0-151.992 
			c0-65.904, 50.424-119.328, 116.328-119.328S 367.84,134.352, 367.84,200.256L 367.84,352.248 l 80.328,0 l0-159.336 C 448.168,86.32, 362.456-0.416, 255.84-0.416z"  />
<glyph unicode="&#xe020;" d="M 297.672,447.64l 0.088,0  M 297.672,447.64l-36.104-189.688l 130.792-0.44L 214.328,0.36l 36.104,208.688l-130.784,0.456L 297.672,447.64
	 M 297.696,479.64c-0.864,0-1.728-0.032-2.576-0.096c-5.648-0.456-9.392-2.344-13.832-5.328c-2.464-1.64-4.72-3.64-6.696-5.968
	c-0.584-0.688-1.136-1.408-1.648-2.144L 93.64,228.8c-7.080-9.704-8.12-22.512-2.68-33.216c 5.432-10.704, 16.416-17.488, 28.456-17.576
	l 92.368-0.672l-29.040-171.096c-2.76-14.704, 5.080-29.36, 18.88-35.264c 4.112-1.768, 8.432-2.608, 12.696-2.608c 10.056,0, 18.32,4.704, 24.52,13.2
	L 418.368,238.72c 7.080,9.704, 8.112,22.528, 2.68,33.216c-5.432,10.704-16.416,17.488-28.456,17.576l-92.368,0.16l 28.728,150.44
	c 0.6,2.424, 0.912,4.936, 0.912,7.528c0,17.312-13.784,31.424-31.032,31.984C 298.448,479.64, 298.072,479.64, 297.696,479.64L 297.696,479.64z"  />
<glyph unicode="&#xe021;" d="M 390.632,176.424c-8.128,3.64-17.544-0.032-21.128-8.096c-0.328-0.712-33.064-72.104-114.72-73.064
			c-0.504,0-1-0.016-1.504-0.016c-76.832,0-109.968,70.184-111.344,73.2c-3.656,8-13.096,11.56-21.16,7.936
			c-8.048-3.64-11.624-13.104-7.984-21.168c 1.704-3.784, 42.688-91.968, 140.424-91.968c 0.64,0, 1.296,0.016, 1.936,0.016
			c 101.936,1.2, 141.92,88.328, 143.56,92.032C 402.336,163.376, 398.696,172.832, 390.632,176.424z M 256,480C 114.608,480,0,365.392,0,224
			s 114.608-256, 256-256s 256,114.608, 256,256S 397.392,480, 256,480z M 256,0C 132.488,0, 32,100.488, 32,224S 132.488,448, 256,448s 224-100.488, 224-224S 379.512,0, 256,0z
			 M 175.752,240.088c 17.632,0, 31.92,14.296, 31.92,31.912s-14.288,31.912-31.92,31.912c-17.64,0-31.92-14.296-31.92-31.912
			S 158.112,240.088, 175.752,240.088z M 335.752,240.088c 17.632,0, 31.92,14.296, 31.92,31.912s-14.288,31.912-31.92,31.912
			c-17.64,0-31.92-14.296-31.92-31.912S 318.112,240.088, 335.752,240.088z"  />
<glyph unicode="&#xe022;" d="M 256,480C 114.608,480,0,365.392,0,224s 114.608-256, 256-256s 256,114.608, 256,256S 397.392,480, 256,480z M 480,224c0-33.16-7.296-64.632-20.28-92.968
			l-141.608,75.776c 1.512,5.488, 2.392,11.232, 2.392,17.192c0,35.624-28.872,64.504-64.504,64.504c-7.312,0-14.312-1.272-20.856-3.512
			L 150.336,421.448C 181.832,438.368, 217.808,448, 256,448C 379.512,448, 480,347.512, 480,224z M 256,256.496c 17.92,0, 32.504-14.576, 32.504-32.504
			S 273.92,191.496, 256,191.496S 223.504,206.080, 223.504,224S 238.080,256.496, 256,256.496z M 123.288,404.312l 85.088-136.92
			c-0.376-0.416-0.768-0.824-1.144-1.256l-141.584,75.76C 80.752,366.184, 100.344,387.384, 123.288,404.312z M 32,224
			c0,31.84, 6.72,62.128, 18.752,89.584l 142.184-76.080c-0.928-4.36-1.44-8.864-1.44-13.504c0-35.624, 28.872-64.504, 64.504-64.504
			c 6.2,0, 12.176,0.92, 17.848,2.552l 85.096-136.896C 328.104,9.128, 293.112,0, 256,0C 132.488,0, 32,100.488, 32,224z M 386.224,41.92
			L 301.472,178.264c 0.248,0.248, 0.48,0.512, 0.728,0.768l 142.144-76.072C 428.968,79.144, 409.224,58.416, 386.224,41.92z"  />
<glyph unicode="&#xe023;" d="M 508.2,231.68l-4.24,4.040c-0.080,0.080-0.168,0.112-0.264,0.184l-64.872,59.216
			c-4.672,4.472-12.224,4.472-16.912,0l-2.744-4.032c-4.672-4.472-3.152-11.704, 1.52-16.168l 38.232-34.672L 273.248,240.248 L 273.248,426.92 l 34.672-38.232
			c 4.472-4.672, 11.704-6.192, 16.168-1.512l 4.032,2.736c 4.472,4.688, 4.472,12.24,0,16.92l-56.584,61.984
			c-1.376,2.776-3.504,5.072-6.16,6.648l-0.712,0.744c-2.216,2.336-5.168,3.504-8.112,3.488c-2.952,0.016-5.888-1.152-8.144-3.488
			l-4.048-4.232c-0.080-0.080-0.088-0.184-0.168-0.272l-57.752-63.872c-4.464-4.664-4.464-12.224,0-16.912l 4.032-2.736
			c 4.464-4.672, 11.712-3.16, 16.184,1.512l 34.576,38.552l0-187.992 L 53.080,240.256 l 38.232,34.672c 4.672,4.472, 6.192,11.704, 1.52,16.168l-2.736,4.032
			c-4.68,4.472-12.248,4.472-16.92,0l-61.992-56.592c-2.768-1.368-5.064-3.504-6.64-6.144L 3.8,231.68
			c-2.344-2.224-3.504-5.176-3.488-8.12c-0.008-2.952, 1.144-5.888, 3.488-8.144l 4.232-4.048c 0.080-0.080, 0.184-0.088, 0.264-0.168
			l 63.872-57.752c 4.672-4.464, 12.232-4.464, 16.92,0l 2.736,4.032c 4.672,4.472, 3.152,11.72-1.52,16.184l-38.56,34.576l 189.504,0 L 241.248,19.76 
			l-34.576,38.552c-4.472,4.672-11.72,6.184-16.184,1.512l-4.032-2.736c-4.464-4.688-4.464-12.248,0-16.912l 57.752-63.872
			c 0.080-0.088, 0.096-0.184, 0.168-0.264l 4.048-4.24c 2.256-2.336, 5.192-3.504, 8.144-3.488c 2.936-0.016, 5.888,1.152, 8.112,3.488
			l 4.048,4.24c 0.080,0.080, 0.112,0.168, 0.184,0.264l 59.216,64.872c 4.472,4.672, 4.472,12.232,0,16.912l-4.032,2.744
			c-4.472,4.672-11.704,3.152-16.168-1.52l-34.672-38.232L 273.256,208.248 L 460.24,208.248 l-38.552-34.576c-4.672-4.472-6.184-11.72-1.512-16.184l 2.736-4.032
			c 4.688-4.464, 12.248-4.464, 16.912,0l 63.872,57.752c 0.088,0.088, 0.184,0.096, 0.264,0.168l 4.24,4.048
			c 2.336,2.248, 3.504,5.184, 3.488,8.144C 511.704,226.496, 510.536,229.456, 508.2,231.68z"  />
<glyph unicode="&#xe024;" d="M 496,80l-64,0 L 432,376.952 l 59.728,59.648c 6.24,6.248, 6.24,16.384,0,22.632c-6.248,6.248-16.384,6.248-22.632,0L 409.792,400L 112,400 L 112,464 
			c0,8.84-7.16,16-16,16s-16-7.16-16-16l0-64 L 16,400 c-8.84,0-16-7.16-16-16c0-8.832, 7.16-16, 16-16l 64,0 l0-304 c0-1.472, 0.472-2.8, 0.84-4.144
			c 0.16-0.608, 0.128-1.232, 0.36-1.816c 1.608-4.032, 4.8-7.216, 8.832-8.84c 0.688-0.28, 1.44-0.248, 2.144-0.424
			C 93.44,48.456, 94.64,48, 96,48l 304,0 l0-64 c0-8.84, 7.16-16, 16-16s 16,7.16, 16,16l0,64 l 64,0 c 8.84,0, 16,7.16, 16,16S 504.84,80, 496,80z M 377.744,368
			L 112,102.608L 112,368 L 377.744,368 z M 134.64,80L 400,344.992L 400,80 L 134.64,80 z"  />
<glyph unicode="&#xe025;" d="M 464.072,392L 47.928,392 c-26.512,0-48-21.488-48-48l0-240 c0-26.512, 21.488-48, 48-48l 416.144,0 
			c 26.512,0, 48,21.488, 48,48L 512.072,344 C 512.072,370.512, 490.584,392, 464.072,392z M 47.928,360l 416.144,0 c 8.832,0, 16-7.168, 16-16l0-32 L 31.928,312 l0,32 
			C 31.928,352.832, 39.104,360, 47.928,360z M 464.072,88L 47.928,88 c-8.832,0-16,7.168-16,16L 31.928,248 l 448.144,0 l0-144 C 480.072,95.168, 472.896,88, 464.072,88z"  />
<glyph unicode="&#xe026;" d="M 405.208-5.36l-85.2,100.832L 320.008,272.224 l 10.656,0 c 8.84,0, 16,7.16, 16,16s-7.16,16-16,16l-26.656,0 c-8.84,0-16-7.16-16-16l0-198.912 
			c0-3.968, 1.472-7.784, 4.128-10.72l 65.184-78.672l-202.64,0 l 65.184,78.672c 2.656,2.936, 4.128,6.752, 4.128,10.72L 223.992,288.224 c0,8.84-7.16,16-16,16
			l-26.656,0 c-8.84,0-16-7.16-16-16s 7.16-16, 16-16l 10.656,0 l0-176.752 L 106.792-5.36c-4.232-4.688-5.312-11.44-2.752-17.216
			c 2.576-5.784, 8.296-9.504, 14.624-9.504l 274.672,0 c 6.328,0, 12.048,3.72, 14.624,9.504C 410.52-16.8, 409.448-10.048, 405.208-5.36z M 240,320.16
			c 17.632,0, 31.92,14.296, 31.92,31.92c0,17.608-14.288,31.904-31.92,31.904c-17.64,0-31.92-14.296-31.92-31.904
			C 208.080,334.456, 222.36,320.16, 240,320.16z M 344.24,367.656c 31.184,0, 56.464,25.168, 56.464,56.208s-25.272,56.208-56.464,56.208
			c-31.176,0-56.464-25.168-56.464-56.208S 313.064,367.656, 344.24,367.656z M 343.992,448.168c 13.328,0, 24.168-10.792, 24.168-24.064
			c0-13.264-10.84-24.064-24.168-24.064s-24.168,10.8-24.168,24.064C 319.832,437.376, 330.664,448.168, 343.992,448.168z"  />
<glyph unicode="&#xe005;" d="M 255.864,448c 54.336,0, 111.96-45.768, 111.96-79.928l0-79.96 c0-30.776-12.8-89.656-47.128-116.688c-8.752-6.888-13.296-17.84-11.984-28.904
	c 1.312-11.080, 8.296-20.656, 18.424-25.312l 139.248-66.032c 1.088-0.496, 13.344-2.552, 13.344-19.672l 0.016-31.232L 32,0.248L 32,32.72 
	c0,12.72, 9.544,16.712, 13.36,18.472l 140.512,66.312c 10.080,4.624, 17.032,14.16, 18.384,25.16c 1.36,11-3.080,21.92-11.728,28.856
	c-33.24,26.688-48.728,85.352-48.728,116.592l0,79.96 C 143.808,401.496, 202.008,448, 255.864,448 M 255.864,480c-70.656,0-144.064-58.968-144.064-111.928
	l0-79.96 c0-34.936, 15.944-105.624, 60.696-141.544L 31.976,80.248c0,0-31.976-14.248-31.976-31.984l0-48.016 c0-17.672, 14.32-31.984, 31.976-31.984l 447.776,0 
	c 17.672,0, 31.984,14.312, 31.984,31.984l0,48.016 c0,18.8-31.984,31.984-31.984,31.984l-139.248,66.032c 44.328,34.888, 59.328,103.424, 59.328,141.832
	l0,79.96 C 399.832,421.032, 326.512,480, 255.864,480L 255.864,480z"  />
<glyph unicode="&#xe007;" d="M 255.992,461.936C 115.008,461.936, 0.32,347.232, 0.32,206.248
			c0-88.576, 44.84-169.592, 119.952-216.704c 7.472-4.736, 17.344-2.44, 22.048,5.048s 2.44,17.36-5.048,22.048
			c-27.048,16.976-49.52,39.024-66.712,64.44l 16.776,9.688c 7.656,4.424, 10.28,14.2, 5.856,21.856c-4.44,7.672-14.232,10.28-21.856,5.856
			l-16.8-9.696c-12.2,25.256-19.648,52.896-21.64,81.712l 17.808,0 c 8.84,0, 16,7.16, 16,16s-7.16,16-16,16L 32.976,222.496 
			c 2.12,29.344, 9.888,57.152, 22.28,82.296l 16.080-9.28c 2.512-1.456, 5.264-2.144, 7.984-2.144c 5.528,0, 10.904,2.872, 13.872,8
			c 4.424,7.656, 1.8,17.44-5.856,21.856l-15.92,9.184c 16.056,23.416, 36.432,43.648, 59.992,59.512l 9.008-15.6c 2.968-5.144, 8.344-8, 13.872-8
			c 2.72,0, 5.472,0.688, 7.984,2.144c 7.656,4.424, 10.28,14.2, 5.856,21.856l-8.976,15.536c 24.664,11.896, 51.84,19.328, 80.488,21.408l0-19.936 
			c0-8.84, 7.16-16, 16-16s 16,7.16, 16,16L 271.64,429.328 c 29.296-2.040, 57.064-9.696, 82.192-21.976l-8.68-15.024c-4.424-7.656-1.8-17.44, 5.856-21.856
			c 2.512-1.456, 5.264-2.144, 7.984-2.144c 5.528,0, 10.904,2.856, 13.872,8l 8.64,14.968c 23.344-15.888, 43.536-36.072, 59.44-59.408l-14.984-8.656
			c-7.656-4.424-10.28-14.2-5.856-21.856c 2.968-5.144, 8.344-8, 13.872-8c 2.72,0, 5.472,0.688, 7.984,2.144l 15.064,8.696
			c 12.296-25.136, 19.976-52.912, 22.024-82.216l-17.568,0 c-8.84,0-16-7.16-16-16s 7.16-16, 16-16l 17.56,0 c-2.024-28.44-9.296-55.72-21.248-80.656
			l-15.84,9.144c-7.64,4.424-17.456,1.784-21.856-5.856c-4.424-7.656-1.8-17.44, 5.856-21.856L 441.84,81.6
			c-17.552-26.12-40.72-48.696-68.68-65.912c-7.528-4.64-9.856-14.504-5.232-22.016c 3.032-4.904, 8.264-7.608, 13.64-7.608
			c 2.856,0, 5.768,0.768, 8.376,2.376c 76.232,46.952, 121.736,128.392, 121.736,217.816C 511.68,347.232, 396.976,461.936, 255.992,461.936z
			 M 374.056,256.136c 7.648,4.424, 10.272,14.2, 5.856,21.856c-4.416,7.648-14.208,10.272-21.856,5.848l-86.912-50.176
			c-4.64,2.624-9.928,4.248-15.64,4.248c-17.64,0-31.92-14.296-31.92-31.904c0-17.624, 14.288-31.92, 31.92-31.92c 17.64,0, 31.92,14.296, 31.92,31.92
			c0,0.032-0.008,0.072-0.008,0.104L 374.056,256.136z"  />
<glyph unicode="&#xe008;" d="M 470.368,385.152c-13.872,9.984-52.528,23.248-214.504,23.248c-173.576,0-199.328-15.232-207.592-20.216
			c-43.984-26.424-48.16-143.408-48.544-167.128c 0.528-31.328, 5.592-135.56, 48.512-161.344c 8.248-4.968, 33.856-20.112, 207.624-20.112
			c 162.080,0, 200.688,13.2, 214.504,23.144c 37.488,26.968, 41.8,119.84, 41.904,158.72C 512.176,252.728, 508.896,357.4, 470.368,385.152z
			 M 451.68,88.712c-5.576-4.016-37.592-17.112-195.816-17.112c-152.968,0-185.064,11.872-191.128,15.528c-15.44,9.264-31.736,58.44-33.016,134.016
			c 1.264,75.408, 17.784,130.456, 33.048,139.608c 6.080,3.672, 38.296,15.64, 191.096,15.64c 158.096,0, 190.2-13.184, 195.816-17.216
			c 13.704-9.872, 28.376-61.84, 28.592-137.816C 480.056,144.192, 465.288,98.504, 451.68,88.712z M 360.208,236.584L 216.24,324.928
			c-4.952,2.984-11.112,3.064-16.128,0.232c-5.032-2.84-8.144-8.168-8.144-13.936l0-176.72 c0-5.768, 3.112-11.096, 8.144-13.936
			c 2.44-1.376, 5.16-2.064, 7.856-2.064c 2.856,0, 5.736,0.768, 8.264,2.296l 143.968,88.376c 4.8,2.904, 7.736,8.096, 7.736,13.704
			S 365.008,233.696, 360.208,236.584z M 223.976,162.848L 223.976,282.896 l 97-60.016L 223.976,162.848z"  />
<glyph unicode="&#xe009;" d="M 342.2,400.656c 26.44,0, 50.312-10.816, 67.128-28.184c 20.92,4.048, 40.64,11.424, 58.36,21.64c-6.856-20.816-21.44-38.28-40.408-49.328
	c 18.56,2.184, 36.328,6.952, 52.816,14.080c-12.36-17.872-27.92-33.608-45.888-46.184c 0.168-3.816, 0.264-7.672, 0.264-11.512
	c0-117.864-92.504-253.808-261.656-253.808c-51.92,0-100.28,14.816-140.952,40.112c 7.184-0.84, 14.504-1.264, 21.92-1.264
	c 43.080,0, 82.752,14.248, 114.232,38.2c-40.264,0.688-74.248,26.504-85.904,61.92c 5.608-1.048, 11.376-1.608, 17.312-1.608
	c 8.36,0, 16.504,1.080, 24.2,3.128c-42.064,8.168-73.768,44.224-73.768,87.464c0,0.392,0,0.768,0,1.144
	c 12.408-6.688, 26.576-10.704, 41.672-11.168c-24.688,16.016-40.92,43.28-40.92,74.232c0,16.36, 4.544,31.688, 12.456,44.816
	C 108.408,330.4, 176.168,294.88, 252.608,291.144c-1.576,6.512-2.392,13.392-2.392,20.312C 250.216,360.728, 291.392,400.656, 342.2,400.656
	 M 480.096,358.848l 0.080,0  M 342.2,432.656c-62.832,0-114.888-45.904-122.904-105.216c-51.408,10.328-98.16,37.544-131.752,77.472
	C 81.448,412.168, 72.464,416.32, 63.056,416.32c-0.832,0-1.672-0.032-2.512-0.096C 50.248,415.4, 40.984,409.664, 35.656,400.832
	c-11.16-18.512-17.048-39.72-17.048-61.328c0-14.424, 2.592-28.472, 7.504-41.608c-5.232-5.816-8.248-13.424-8.248-21.456l0-1.144 
	c0-31.344, 12.392-60.432, 32.968-82.232c-1.184-5.488-0.92-11.232, 0.888-16.736c 7.096-21.592, 20.016-40.2, 36.768-54.376
	c-11.248-2.504-22.856-3.768-34.704-3.768c-6.264,0-12.36,0.344-18.128,1.048c-1.28,0.16-2.544,0.216-3.816,0.216
	c-13.44,0-25.64-8.472-30.168-21.392c-4.968-14.16, 0.544-29.856, 13.28-37.784c 47.264-29.408, 101.856-44.936, 157.856-44.936
	c 182.016,0, 291.504,142.488, 293.632,281.672c 14.896,12.328, 28.064,26.592, 39.224,42.576c 4.064,5.344, 6.48,12.016, 6.48,19.248
	c0,10.888-5.448,20.512-13.744,26.296c 3.592,12.312-0.504,25.64-10.504,33.784c-5.84,4.752-13,7.168-20.2,7.168
	c-5.504,0-11.016-1.408-15.984-4.28c-10.576-6.096-21.888-10.92-33.8-14.392C 396.36,423.624, 369.64,432.656, 342.2,432.656L 342.2,432.656z"  />
<glyph unicode="&#xe00a;" d="M 264.008,448.128l0-111.936 l 112.16,0 l0-47.984 L 264.504,288.208 l-0.16-139.264c0-25.888, 1.344-42.504, 4.080-49.872c 4.264-11.624, 19.784-26.504, 48.592-26.504
	c 22.344,0, 52.488,6.72, 75.080,23.624l0-74.656 c-18.84-8.984-36.36-12.608-51.624-16.232c-15.28-3.608-31.832-5.424-49.576-5.424
	c-19.768,0-76.832,0.544-100.248,60.2c-4.216,10.736-6.328,26.328-6.328,46.736L 184.32,288.128 l-64.424,0 l 0.312,49.064
	c 21.328,0, 85.312,12.952, 85.312,110.936L 264.008,448.128  M 264.008,480.128L 205.52,480.128 c-17.672,0-32-14.328-32-32c0-73.248-40.816-78.936-53.312-78.936
	c-17.608,0-31.92-14.232-32-31.84l-0.312-49.064c-0.048-8.512, 3.312-16.688, 9.312-22.736c 6.016-6.032, 14.168-9.424, 22.688-9.424l 32.424,0 l0-149.312 
	c0-24.688, 2.8-43.816, 8.544-58.44c 14.424-36.72, 48.688-80.504, 130.032-80.504c 20.144,0, 39.296,2.112, 56.936,6.28l 3.528,0.832
	c 14.936,3.512, 34.016,7.888, 54.504,17.656c 11.144,5.312, 18.232,16.544, 18.232,28.888l0,74.656 c0,12.112-6.84,23.184-17.672,28.608
	c-4.528,2.28-9.44,3.392-14.328,3.392c-6.784,0-13.528-2.16-19.168-6.376c-19.048-14.264-43.424-17.248-55.904-17.248
	c-12.8,0-17.56,4.64-18.608,5.872c-0.544,2.512-2.064,11.888-2.064,38.504l 0.112,107.264l 79.704,0 c 17.672,0, 32,14.328, 32,32l0,47.984 
	c0,17.672-14.328,32-32,32l-80.16,0 L 296.008,448.128 C 296.008,465.8, 281.68,480.128, 264.008,480.128L 264.008,480.128z"  />
<glyph unicode="&#xe00b;" d="M 290.88,439.752c 1.904,0, 3-0.080, 3-0.080l 41.784,0 l-0.216-48l-41.504,0 c-22.84,0-22.312-19.504-22.312-19.504l0-76.096 l 80.816,0 
	l-11.28-47.936l-69.8,0 l0-239.888 l-47.952,0 l-0.032,239.888L 159.68,248.136 l-0.128,47.936l 63.856,0 c0,0,0,58.688,0,74.592
	C 223.416,435.704, 277.432,439.752, 290.88,439.752 M 335.664,439.672l 0.080,0  M 290.88,471.752L 290.88,471.752c-11.504,0-33.984-1.904-55.28-14.736
	c-20.16-12.128-44.184-36.968-44.184-86.344l0-42.592 l-31.856,0 c-8.504,0-16.656-3.392-22.672-9.408c-6-6.032-9.36-14.184-9.328-22.704
	l 0.128-47.936c 0.064-17.624, 14.376-31.888, 32-31.888l 31.704,0 l 0.032-207.888c0-17.672, 14.328-32, 32-32l 47.952,0 c 17.672,0, 32,14.328, 32,32L 303.376,216.144 l 37.8,0 
	c 14.2,0, 26.704,9.36, 30.704,22.984l 11.28,47.936c 2.84,9.672, 0.952,20.128-5.096,28.184c-6.032,8.080-15.528,12.832-25.608,12.832l-48.816,0 
	l0,31.576 l 31.816,0.016c 17.608,0, 31.92,14.232, 32,31.856l 0.216,46.376c 0.032,0.592, 0.048,1.168, 0.048,1.768c0,17.672-14.296,32-31.968,32l-0.080,0 
	l-40.888,0 C 293.864,471.72, 292.536,471.752, 290.88,471.752L 290.88,471.752z"  />
<glyph unicode="&#xe00c;" d="M 511.712,367.624c-0.36,5.112-3.144,9.736-7.488,12.456L 361.632,469.064c-5.8,3.608-13.216,3.16-18.528-1.144l-87.112-70.472
			L 168.896,467.92c-5.296,4.28-12.768,4.768-18.528,1.144L 7.776,380.080c-4.344-2.72-7.128-7.344-7.488-12.456
			c-0.376-5.112, 1.736-10.080, 5.656-13.376l 82.608-69.408l-70.768-55.592c-4.048-3.16-6.312-8.088-6.112-13.208
			c 0.2-5.12, 2.84-9.832, 7.112-12.68l 65.488-43.656c-3.216-2.92-5.272-7.104-5.272-11.8l0-64.168 c0-5.56, 2.888-10.72, 7.624-13.64
			l 160.984-91.216c 2.56-1.576, 5.472-2.36, 8.376-2.36s 5.816,0.8, 8.392,2.376l 159.112,91.216c 4.736,2.92, 7.608,8.080, 7.608,13.624
			l0,75.264 c0,1.032-0.12,2.040-0.304,3.016l 62.024,41.344c 4.264,2.84, 6.904,7.544, 7.112,12.664c 0.2,5.128-2.048,10.040-6.080,13.208
			l-70.456,55.576l 82.656,69.44C 509.976,357.544, 512.088,362.512, 511.712,367.624z M 368.336,284.672l-112.344-70.392l-112.344,70.392l 112.344,73.112
			L 368.336,284.672z M 43.4,364.576l 114.232,71.296l 71.184-57.592l-113.672-73.984L 43.4,364.576z M 114.96,264.888l 112.984-70.8l-64.032-49.016
			L 54.912,217.728L 114.96,264.888z M 111.008,141.888l 44.672-29.784c 5.672-3.784, 13.16-3.528, 18.592,0.608l 64.704,49.52l0-141.4 l-127.968,71.84
			L 111.008,141.888 z M 399.104,92.672l-128.128-72.84L 270.976,163.72 l 66.328-50.984c 2.856-2.2, 6.312-3.312, 9.752-3.312c 3.096,0, 6.184,0.888, 8.872,2.688
			l 43.168,28.784L 399.096,92.672 z M 456.728,217.76l-109.016-72.664l-63.72,48.968l 113,70.816L 456.728,217.76z M 396.832,304.296l-113.672,73.984
			l 71.2,57.592l 114.232-71.296L 396.832,304.296z"  />
<glyph unicode="&#xe00d;" d="M 255.992,479.864c-34.928,0-68.232-7.056-98.592-19.784c-1.056-0.336-2.088-0.776-3.072-1.336
			C 63.696,419.336, 0.136,328.968, 0.136,223.992c0-141.080, 114.784-255.856, 255.856-255.856c 141.096,0, 255.872,114.784, 255.872,255.856
			C 511.864,365.088, 397.088,479.864, 255.992,479.864z M 479.864,223.992c0-1.792-0.096-3.56-0.136-5.336
			c-24.512,6.504-86.696,18.72-163.4,1.872c-6.76,15.448-14.256,31.288-22.64,47.408c-0.704,1.352-1.392,2.64-2.088,3.976
			c 82.064,31.672, 116.944,74.336, 131.384,100.976C 458.328,333.28, 479.864,281.112, 479.864,223.992z M 398.768,396.28
			c-7.456-17.6-34.52-63-122.36-95.944C 236.96,372.448, 206.296,415.672, 189.112,437.656c 21.128,6.632, 43.592,10.208, 66.88,10.208
			C 310.208,447.864, 359.984,428.48, 398.768,396.28z M 158.024,425.24c 13.608-16.64, 45.192-58.528, 87.552-135.224
			c-100-30.144-181.224-26.52-209.416-23.896C 49.568,336.192, 95.696,394.776, 158.024,425.24z M 32.136,223.992c0,3.448, 0.104,6.872, 0.264,10.288
			c 9.624-0.968, 24.576-2.040, 44.144-2.040c 43.448,0, 108.856,5.376, 184.504,29.072c 1.424-2.688, 2.832-5.368, 4.272-8.136
			c 7.216-13.888, 13.744-27.592, 19.704-41.032c-13.688-4.304-27.696-9.536-41.936-15.984c-91.312-41.352-134.096-100.352-149.336-126.168
			C 55.616,110.152, 32.136,164.368, 32.136,223.992z M 118.048,47.88c 8.12,15.376, 45.304,77.040, 138.224,119.128
			c 13.984,6.336, 27.76,11.392, 41.192,15.456c 30.368-77.16, 40.904-140.784, 44.088-165.296c-26.376-10.952-55.264-17.032-85.56-17.032
			C 203.984,0.136, 156.096,18.016, 118.048,47.88z M 371.808,32.48c-4.616,30.8-16.072,88.696-42.984,157.832
			c 74.224,14.776, 132.976,0.28, 147.808-4.040C 465.52,121.168, 426.264,65.528, 371.808,32.48z"  />
<glyph unicode="&#xe00e;" d="M 453.976,407.76c-5.936,5.544-13.752,8.608-21.832,8.608
			c-0.736,0-1.472-0.032-2.2-0.080c-0.456-0.032-5.592-0.344-13.64-0.344c-13.328,0-39.344,0.904-63.984,6.968
			c-31.832,7.816-68.56,44.080-79.248,51.232c-5.376,3.592-11.576,5.392-17.784,5.392c-6.184,0-12.392-1.8-17.768-5.376
			c-1.296-0.872-39.752-42.016-77.376-51.248c-24.624-6.064-51.144-6.968-64.456-6.968c-8.048,0-13.184,0.312-13.688,0.344
			c-0.704,0.048-1.408,0.080-2.112,0.080c-8.096,0-15.936-3.080-21.888-8.64c-6.472-6.048-10.16-14.504-10.16-23.36l0-80.016 
			c0-295.816, 193.56-333.904, 201.784-335.392c 1.872-0.328, 3.768-0.504, 5.656-0.504s 3.8,0.168, 5.656,0.504
			c 8.216,1.488, 203.2,39.576, 203.2,335.392L 464.136,384.368 C 464.152,393.24, 460.464,401.712, 453.976,407.76z M 432.152,304.352
			c0-272.456-176.856-303.888-176.856-303.888s-175.44,31.44-175.44,303.888c0,69.84,0,80.016,0,80.016s 6.048-0.424, 15.84-0.424
			c 16.784,0, 45.016,1.232, 72.080,7.888c 44.312,10.872, 87.512,55.704, 87.512,55.704s 45.128-44.832, 89.392-55.704
			c 27.096-6.656, 54.84-7.888, 71.624-7.888c 9.784,0, 15.84,0.424, 15.84,0.424S 432.152,374.192, 432.152,304.352z M 323.8,306.88
			c-6.248,6.248-16.384,6.248-22.624,0l-45.256-45.256l-45.256,45.256c-6.248,6.248-16.384,6.248-22.632,0s-6.248-16.384,0-22.624l 45.256-45.256
			l-45.256-45.256c-6.248-6.24-6.248-16.376,0-22.624s 16.384-6.248, 22.632,0l 45.256,45.256l 45.256-45.256c 6.24-6.248, 16.376-6.248, 22.624,0
			s 6.248,16.384,0,22.624l-45.256,45.256l 45.256,45.256C 330.048,290.496, 330.048,300.632, 323.8,306.88z"  />
<glyph unicode="&#xe00f;" d="M 416.072,480L 95.928,480 c-26.512,0-48-21.488-48-48l0-416 c0-26.512, 21.488-48, 48-48l 320.144,0 
			c 26.512,0, 48,21.488, 48,48L 464.072,432 C 464.072,458.512, 442.584,480, 416.072,480z M 432.072,16c0-8.832-7.168-16-16-16L 95.928,0 c-8.832,0-16,7.168-16,16L 79.928,432 
			c0,8.832, 7.168,16, 16,16l 320.144,0 c 8.832,0, 16-7.168, 16-16L 432.072,16 z M 256.024,79.912c-17.64,0-31.92-14.296-31.92-31.912s 14.28-31.92, 31.92-31.92
			c 17.632,0, 31.92,14.304, 31.92,31.92S 273.656,79.912, 256.024,79.912z M 288.024,432l-64,0 c-8.832,0-16-7.168-16-16s 7.168-16, 16-16l 64,0 
			c 8.832,0, 16,7.168, 16,16S 296.856,432, 288.024,432z"  />
<glyph unicode="&#xe017;" d="M 510.256,265.312l-51.392,76.84l 25.576,89.408c 1.592,5.608, 0.032,11.64-4.112,15.752c-4.128,4.128-10.128,5.656-15.768,4.016
			L 375.304,425.264l-77.144,51.952c-4.856,3.264-11.080,3.656-16.232,0.968c-5.184-2.656-8.512-7.936-8.704-13.752l-2.768-92.968
			l-73.248-57.296c-4.592-3.592-6.856-9.408-5.936-15.16s 4.904-10.544, 10.408-12.512l 68.728-24.64c-0.464-0.368-0.952-0.696-1.384-1.128
			L 3.648-4.648c-6.248-6.248-6.248-16.376,0-22.624c 3.128-3.128, 7.216-4.688, 11.312-4.688s 8.184,1.56, 11.312,4.688l 265.376,265.376
			c 1.032,1.032, 1.832,2.2, 2.52,3.408l 26.896-73.776c 2-5.472, 6.816-9.424, 12.576-10.328c 0.816-0.128, 1.64-0.184, 2.456-0.184
			c 4.904,0, 9.592,2.264, 12.656,6.216l 56.888,73.584l 91.952,3.28c 5.832,0.2, 11.080,3.56, 13.72,8.768
			C 513.944,254.264, 513.536,260.496, 510.256,265.312z M 397.024,268.728c-4.752-0.16-9.184-2.44-12.096-6.2l-43.736-56.552l-24.488,67.16
			c-1.624,4.472-5.16,7.968-9.64,9.576l-67.296,24.128l 56.312,44.032c 3.752,2.936, 5.984,7.376, 6.144,12.128l 2.128,71.472l 59.296-39.936
			c 3.952-2.656, 8.888-3.408, 13.424-2.096l 68.624,20.048l-19.672-68.736c-1.296-4.576-0.504-9.488, 2.168-13.424l 40.28-59.064L 397.024,268.728z
			"  />
<glyph unicode="&#xe018;" d="M 416.528,447.696l-32.232,0 l0-107.704 c0-52.192-28.328-91.68-89.048-122.6
	C 358.28,185.488, 384.8,146.312, 384.8,87.856c0-38.064-0.168-70-0.296-87.56l 32.032,0 c 8.84,0, 16-7.144, 16-15.984s-7.16-16-16-16L 95.472-31.688 
	c-8.84,0-16,7.16-16,16s 7.16,15.984, 16,15.984l 32.968,0 c-0.12,17.56-0.296,49.504-0.296,87.56c0,58.456, 26.144,97.624, 89.072,129.528
	c-60.616,30.92-88.568,70.408-88.568,122.6L 128.648,447.696 l-33.176,0 c-8.84,0-16,7.152-16,16c0,8.832, 7.16,15.992, 16,15.992l 321.064,0 
	c 8.84,0, 16-7.16, 16-15.992C 432.528,454.848, 425.376,447.696, 416.528,447.696z M 160.136,87.856c0-38.144, 0.176-70.112, 0.296-87.56l 192.088,0 
	c 0.112,17.456, 0.296,49.424, 0.296,87.56c0,44.504-16.56,79.016-96.592,112.2C 176.216,166.872, 160.136,132.36, 160.136,87.856z M 352.312,447.696
	l-191.68,0 l0-107.704 c0-30.688, 10.32-70.208, 95.584-105.264c 85.28,35.056, 96.096,74.576, 96.096,105.264L 352.312,447.696 z"  />
<glyph unicode="&#xe019;" d="M 495.424,131.848L 495.424,260.92 l 8.048,4.248c 5.232,2.72, 8.528,8.112, 8.592,14.016
			c 0.064,5.888-3.128,11.344-8.296,14.184l-240.72,128.8c-4.816,2.64-10.64,2.624-15.488-0.048L 8.16,293.16
			c-5.096-2.84-8.248-8.232-8.216-14.080s 3.248-11.2, 8.408-13.984l 105.192-55.992c-1.32-2.328-2.136-4.984-2.136-7.848l0-135.392 
			c0-4.56, 1.952-8.92, 5.36-11.952c 3.472-3.080, 36.72-30.048, 138.376-30.048c 101.296,0, 135.44,25.488, 139,28.392
			c 3.72,3.032, 5.872,7.576, 5.872,12.392L 400.016,203.512 c0,2.248-0.472,4.384-1.304,6.32l 64.712,34.184l0-112.256 
			c-9.488-5.552-15.92-15.736-15.92-27.512c0-17.672, 14.328-32, 32-32s 32,14.328, 32,32C 511.504,116.096, 504.984,126.32, 495.424,131.848z M 368.016,73.816
			c-12.576-6.048-45.856-17.952-112.872-17.952c-67.44,0-99.968,12.672-111.736,18.768L 143.408,193.2 l 103.904-55.312c 2.36-1.28, 4.984-1.92, 7.592-1.92
			c 2.544,0, 5.096,0.608, 7.408,1.832l 105.704,55.832L 368.016,73.816 z M 255.032,170.096L 49.232,279.376l 206.16,110.488l 206.8-110.168L 255.032,170.096z"  />
<glyph unicode="&#xe01a;" d="M 255.992,480.064c-114.608,0-207.84-99.952-207.84-222.8l0-273.336 c0-6.608, 4.080-12.544, 10.248-14.92
			c 1.856-0.736, 3.816-1.080, 5.752-1.080c 4.424,0, 8.768,1.84, 11.856,5.264l 60.296,66.56l 47.216-65.216
			c 2.984-4.128, 7.752-6.576, 12.84-6.608l 0.112,0 c 5.048,0, 9.816,2.392, 12.832,6.456l 47.408,63.672l 46.592-63.576
			c 3.016-4.112, 7.8-6.544, 12.904-6.544c 5.096,0, 9.888,2.424, 12.904,6.528l 47.784,65.144l 59-66.312
			c 4.408-4.952, 11.472-6.688, 17.64-4.312c 6.2,2.36, 10.312,8.312, 10.312,14.952L 463.848,257.272 C 463.848,380.112, 370.6,480.064, 255.992,480.064z
			 M 431.848,25.984l-44.2,49.688c-3.216,3.608-7.904,5.656-12.704,5.344c-4.832-0.232-9.296-2.624-12.16-6.512l-46.56-63.504
			l-46.504,63.456c-3,4.096-7.768,6.528-12.84,6.544l-0.064,0 c-5.064,0-9.816-2.392-12.832-6.456l-47.344-63.576l-46,63.544
			c-2.832,3.904-7.264,6.328-12.080,6.576c-0.296,0.016-0.576,0.032-0.872,0.032c-4.504,0-8.816-1.904-11.856-5.264l-45.688-50.424
			L 80.144,257.272 c0,105.2, 78.888,190.8, 175.84,190.8c 96.968,0, 175.856-85.592, 175.856-190.8L 431.84,25.984 z M 336,303.92c-17.64,0-31.92-14.296-31.92-31.904
			c0-17.624, 14.28-31.92, 31.92-31.92s 31.92,14.296, 31.92,31.92C 367.92,289.624, 353.64,303.92, 336,303.92z M 176,303.92
			c-17.64,0-31.92-14.296-31.92-31.904c0-17.624, 14.288-31.92, 31.92-31.92s 31.92,14.296, 31.92,31.92C 207.92,289.624, 193.64,303.92, 176,303.92z"  />
<glyph unicode="&#xe01b;" d="M 371.608,442.224c-12.8,6.008-24.904,11.664-35.92,17.192
			c-28.232,14.144-53.832,21.016-78.232,21.016c-49.144,0-83.152-28.352-104.48-49.68l-17.792-17.808l-11.872-11.888l-17.232-17.256l-26.864-26.896
			l-29.664-29.688c-55.344-55.4-64.184-111.8-28.632-182.904c 5.512-11.040, 11.184-23.168, 17.184-36.016
			c 32.352-69.192, 65.792-140.744, 120.528-140.744c 1.536,0, 3.056,0.048, 4.608,0.168c 56.488,4.424, 72.512,77.144, 86.656,141.296
			c 2.248,10.16, 4.376,19.904, 6.56,28.64c 3.8,15.104, 11.28,24.488, 31.776,45.032l 2.816,2.832l 1.736,1.736l 2.248,2.24l 2.312,2.304
			c 20.544,20.544, 29.928,28.016, 45.048,31.832c 8.656,2.176, 18.376,4.32, 28.512,6.544c 64.112,14.152, 136.8,30.184, 141.2,86.76
			C 516.544,374.352, 442.872,408.856, 371.608,442.224z M 479.232,319.832c-3.112-39.888-92.408-51.664-145.552-64.992
			c-23.504-5.936-37.808-18.376-59.392-39.968c-1.504-1.504-3.016-3.008-4.544-4.536c-1.512-1.512-3.016-3.048-4.528-4.544
			c-21.584-21.608-34-35.904-39.912-59.44c-13.336-53.192-25.096-142.584-64.936-145.72c-0.72-0.056-1.44-0.072-2.16-0.072
			c-42.272,0-77.84,96.12-109.224,158.832C 17.112,223.144, 30.768,264.504, 71.664,305.44c 7.848,7.864, 17.608,17.624, 29.568,29.592
			c 12.216,12.232, 26.744,26.776, 43.96,44c 11.952,11.968, 21.704,21.712, 29.56,29.592c 25.4,25.424, 50.968,40.32, 81.96,40.32
			c 18.904,0, 39.816-5.528, 63.936-17.624C 384.376,399.368, 482.592,363.080, 479.232,319.832z M 239.392,304.36l 32,0 l0,32 l-32,0 L 239.392,304.36 z M 239.392,352.36l 32,0 
			l0,32 l-32,0 L 239.392,352.36 z M 287.392,352.36l 32,0 l0,32 l-32,0 L 287.392,352.36 z M 287.392,304.36l 32,0 l0,32 l-32,0 L 287.392,304.36 z M 164.944,208.28l 12.168,12.168
			c 6,6, 6,15.736,0,21.728c-6,6-15.72,6-21.72,0l-12.176-12.176l-12.176,12.176c-6,6-15.72,6-21.72,0
			c-6-6-6-15.728,0-21.728l 12.176-12.176l-12.176-12.176c-6-5.992-6-15.72,0-21.72c 6-6, 15.728-6, 21.72,0
			l 12.176,12.168l 12.528-12.528c 6-6, 15.72-6, 21.72,0s 6,15.736,0,21.736L 164.944,208.28z"  />
<glyph unicode="&#xe01c;" d="M 254.208-31.64c-120.624,0-206.184,83.64-206.184,198.888c0,61.184, 36.688,127.096, 38.248,129.856
	c 3.184,5.672, 9.44,8.752, 15.968,8.032c 6.456-0.832, 11.768-5.488, 13.44-11.784c 0.096-0.376, 9.984-37.376, 23.032-57.92
	c 8.768-13.824, 17.656-23.592, 27.656-30.376c-6.768,29.328-11.952,73.456-3.512,118.736C 186.024,448.080, 283.848,477.816, 288.040,479.016
	c 5.392,1.544, 11.112,0.16, 15.216-3.576c 4.096-3.752, 5.968-9.376, 4.904-14.832c-0.16-0.872-16.312-87.888, 17.968-162.032
	c 3.112-6.736, 7.456-14.56, 12.128-22.392c 1.328,10.752, 3.392,22.184, 6.56,33.28c 12.576,43.984, 45.096,59, 46.472,59.608
	c 5.424,2.472, 11.752,1.656, 16.44-2.016c 4.672-3.688, 6.92-9.64, 5.84-15.504c-0.168-1.080-4.704-31.016, 20.768-73.472
	c 23-38.336, 29.64-63.184, 29.64-110.84C 463.976,52, 375.76-31.64, 254.208-31.64z M 97.848,246.16
	c-8.784-22.152-17.832-51.624-17.832-78.904c0-96.704, 72.096-166.888, 174.184-166.888c 103,0, 177.768,70.184, 177.768,166.888
	c0,41.768-5.16,61.16-25.080,94.376c-13.312,22.184-19.888,42.128-23.032,58c-3.168-5.128-6.112-11.392-8.264-18.936
	c-9.752-34.096-7.296-73.968-7.264-74.376c 0.472-7.136-3.872-13.736-10.624-16.128s-14.264-0.032-18.408,5.832
	c-1.2,1.704-29.656,41.984-42.2,69.12c-26.048,56.296-25.608,117.168-22.952,152.232c-26.36-15.36-66.832-49.672-79.832-119.456
	c-12.656-67.904, 11.936-135.8, 12.2-136.472c 2.128-5.544, 1-11.832-2.904-16.296c-3.92-4.44-9.952-6.408-15.768-5.016
	c-1.984,0.488-47.016,12.2-76.168,58.144C 106.464,226.512, 101.792,236.472, 97.848,246.16z"  />
<glyph unicode="&#xe01d;" d="M 512.688,154.104c-0.488,6.92-26.504,159.656-30.576,184.112c-0.392,2.344-0.704,4.84-1.048,7.472
			c-3.144,24.576-9.016,70.312-82.736,70.312c-8.84,0-16-7.16-16-16s 7.16-16, 16-16c 45.56,0, 47.968-18.704, 51-42.392
			c 0.392-3.032, 0.768-5.936, 1.216-8.64c 1.872-11.264, 10.352-56.080, 17.672-100.512c-18.776,14.312-42.144,22.904-67.56,22.904
			c-40.824,0-77.16-21.976-97.136-54.68c-9.608,3.632-25.912,8.168-47.696,8.168c-21.472,0-37.256-4.568-47.016-8.544
			c-19.424,32.912-55.152,55.064-96.136,55.064c-26.632,0-51.368-9.36-70.92-24.92C 49.168,275.44, 57.952,321.464, 59.856,332.96
			c 0.456,2.704, 0.832,5.608, 1.216,8.64c 3.032,23.688, 5.44,42.392, 51,42.392c 8.84,0, 16,7.16, 16,16s-7.16,16-16,16
			c-73.72,0-79.592-45.736-82.736-70.312c-0.344-2.624-0.656-5.128-1.048-7.472c-4.080-24.456-28.504-176.184-28.984-183.112
			c-0.112-1.544, 0.072-3.024, 0.376-4.472c-0.152-2.312-0.36-4.608-0.36-6.952c0-61.672, 51.672-111.672, 113.344-111.672
			s 111.672,50, 111.672,111.672c0,9.328-1.272,18.336-3.424,26.992c 6.56,2.64, 18.416,6.168, 34.904,6.168c 16.088,0, 28.232-3.216, 35.152-5.664
			c-2.304-8.816-3.664-17.984-3.664-27.496c0-61.672, 51.672-111.672, 113.344-111.672s 111.672,50, 111.672,111.672
			c0,1.672-0.176,3.304-0.248,4.96C 512.56,150.376, 512.832,152.2, 512.688,154.104z M 112.672,64.008c-44.096,0-81.344,36.488-81.344,79.672
			s 37.248,79.672, 81.344,79.672c 43.936,0, 79.672-35.736, 79.672-79.672S 156.608,64.008, 112.672,64.008z M 400.656,64.008
			c-44.096,0-81.344,36.488-81.344,79.672s 37.248,79.672, 81.344,79.672c 38,0, 69.816-26.744, 77.728-62.392
			c 0.328-3.264, 0.6-6.336, 0.808-9.144c 0.096-1.344, 0.456-2.608, 0.92-3.832c 0.080-1.44, 0.216-2.856, 0.216-4.312
			C 480.328,99.744, 444.592,64.008, 400.656,64.008z"  />
<glyph unicode="&#xe01e;" d="M 511.656,243.352c-0.68,5.656-2.808,10.856-6.048,15.232l 0.080,0 l-0.44,0.44c-1.64,2.16-3.56,4.064-5.704,5.752L 290.904,466.48
			c-18.112,18.112-49.752,18.144-67.888,0L 14.408,266.352c-4.512-4.2-14.44-15.544-14.44-26.672l0-239.76 c0-17.592, 14.408-32, 32-32l 448,0 
			c 17.592,0, 32,14.408, 32,32L 511.968,239.048 C 512.080,240.488, 511.936,241.928, 511.656,243.352z M 134.896,116.832L 31.968,22.048L 31.968,207.64 L 134.896,116.832z
			 M 167.784,103.64c 1.144,0.76, 2.232,1.624, 3.184,2.704c 0.184,0.208, 0.312,0.456, 0.48,0.672l 70.584,65
			c 3.624,2.92, 7.92,4.456, 12.44,4.456c 4.592,0, 9.184-1.608, 12.264-4L 458.536-0.080L 55.168-0.080 L 167.784,103.64z M 378.728,114.72
			l 101.24,89.848l0-180.92 L 378.728,114.72z M 51.888,258.584L 245.64,443.856c 3.032,3.016, 7.048,4.688, 11.312,4.688
			c 4.28,0, 8.296-1.672, 11.328-4.688L 448.968,271.68l-0.488,0 l 27.448-27.896l-121.152-107.52l-67.624,60.832
			c-18.84,14.768-45.888,15.408-65.84-0.688l-62.752-57.792L 37.664,245.288l 13.496,13.296L 51.888,258.584 z"  />
<glyph unicode="&#xe01f;" d="M 511.656,243.36c-0.68,5.656-2.808,10.856-6.048,15.232l 0.080,0 l-0.44,0.44c-1.64,2.16-3.56,4.064-5.704,5.752
			L 415.968,348.976L 415.968,400.608 c0,8.84-7.16,16-16,16l-50.664,0 l-58.4,49.856c-18.112,18.112-49.752,18.144-67.888,0l-58.2-49.856l-52.848,0 
			c-8.84,0-16-7.16-16-16l0-52.688 L 14.408,266.36c-8.672-5.736-14.44-15.544-14.44-26.672l0-239.752 c0-17.592, 14.408-32, 32-32l 448,0 
			c 17.592,0, 32,14.408, 32,32l0,239.12 C 512.080,240.496, 511.936,241.936, 511.656,243.36z M 134.432,117.248L 31.968,22.208L 31.968,207.656 L 134.432,117.248z
			 M 165.28,102.248c 2.112,0.904, 4.064,2.264, 5.688,4.112c 0.856,0.968, 1.528,2.032, 2.112,3.128l 68.952,63.968
			c 3.624,2.92, 7.92,4.456, 12.44,4.456c 4.592,0, 9.184-1.608, 12.264-4l 191.92-173.968L 55-0.056 L 165.28,102.248z M 379.168,115.136l 100.8,89.448
			l0-180.816 L 379.168,115.136z M 448.968,271.688l-0.488,0 l 27.448-27.896l-59.96-53.216L 415.968,304.68 L 448.968,271.688z M 245.64,443.84
			c 3.032,3.016, 7.048,4.688, 11.312,4.688c 4.28,0, 8.296-1.672, 11.328-4.688l 32.312-27.232L 213.376,416.608 L 245.64,443.84z M 383.968,384.608l0-222.424 
			l-28.656-25.44l-68.16,61.784c-18.84,14.768-45.888,15.408-65.84-0.688L 158,139.12l-30.032,26.504L 127.968,384.608 L 383.968,384.608 z M 51.888,258.592l 44.080,44.064
			l0-108.808 l-58.312,51.448l 13.496,13.296L 51.888,258.592 z"  />
<glyph unicode="&#xe027;" d="M 452.808,124.056c-18.672,22.712-44.24,54.872-44.24,87.68l0,104.48 
			c0,90.008-67.32,163.24-153.344,163.24c-86.040,0-152.832-73.232-152.832-163.24l0-104.48 c0-32.256-27.744-62.744-45.336-86.4
			c-15.824-21.256-28.312-38.048-19.88-54.832c 7.416-14.768, 25.984-16.664, 41.328-16.664l 91.68,0 c 0.024-47.104, 38.224-85.288, 85.336-85.288
			c 47.12,0, 85.32,38.184, 85.344,85.288l 93.832,0 c 9.76,0, 32.576,0, 40.432,16.6C 483.056,87.248, 470.368,102.696, 452.808,124.056z
			 M 255.504,2.072c-28.608,0-51.816,23.176-51.856,51.768L 307.36,53.84 C 307.32,25.248, 284.128,2.072, 255.504,2.072z M 434.696,87.904L 78.504,87.904 
			c-2.448,0-4.496,0.080-6.184,0.184c 3.296,5.104, 8.136,11.624, 12.072,16.928c 19.496,26.2, 52.072,63.184, 52.072,106.712l0,104.48 
			c0,71.232, 51.52,129.176, 118.76,129.176c 67.24,0, 119.28-57.944, 119.28-129.176l0-104.48 c0-45.008, 30.040-82.624, 51.984-109.304
			c 3.696-4.496, 8.12-9.88, 11.56-14.48C 437.032,87.92, 435.912,87.904, 434.696,87.904z"  />
<glyph unicode="&#xe028;" d="M 510.528,60.016L 416.896,233.168c 9.552,21.68, 14.896,45.64, 14.896,70.848c0,97.152-78.76,175.904-175.904,175.904
			c-97.168,0-175.92-78.76-175.92-175.904c0-25.816, 5.608-50.312, 15.592-72.392L 1.512,60.096c-3.032-5.512-2.528-12.312, 1.264-17.344
			c 3.8-5.016, 10.216-7.376, 16.344-5.936l 80.312,18.424l 27.488-76.56c 2.144-5.952, 7.576-10.080, 13.872-10.544
			c 0.408-0.032, 0.8-0.048, 1.184-0.048c 5.856,0, 11.296,3.216, 14.096,8.44l 81.848,152.488c 5.904-0.6, 11.896-0.904, 17.96-0.904
			c 5.56,0, 11.048,0.288, 16.472,0.8l 83.624-152.504c 2.832-5.16, 8.216-8.312, 14.032-8.312c 0.408,0, 0.832,0.016, 1.248,0.048
			c 6.28,0.504, 11.688,4.624, 13.816,10.544l 27.488,76.56l 80.312-18.424c 6.16-1.488, 12.512,0.904, 16.312,5.904
			C 513,47.72, 513.512,54.488, 510.528,60.016z M 144.888,23.328l-20.128,56.080c-2.752,7.624-10.736,12.064-18.64,10.184L 46.72,75.968
			l 67.704,123.488c 22.296-30.12, 53.976-52.84, 90.72-63.896L 144.888,23.328z M 112.112,304.016c0,79.272, 64.504,143.768, 143.784,143.768
			c 79.272,0, 143.768-64.496, 143.768-143.768s-64.496-143.784-143.768-143.784C 176.608,160.232, 112.112,224.744, 112.112,304.016z M 405.872,89.592
			c-7.936,1.872-15.888-2.56-18.64-10.184l-20.264-56.488L 305.392,135.2c 37.72,11.048, 70.168,34.368, 92.752,65.368l 67.424-124.664L 405.872,89.592z
			"  />
<glyph unicode="&#xe029;" d="M 510.512,114.296l-41.144,75.648c-0.064,0.104-0.048,0.2-0.112,0.296l-2.936,5.072
			c-1.64,2.808-4.216,4.616-7.096,5.296c-2.848,0.704-5.992,0.272-8.704-1.488l-4.92-3.168c-0.096-0.056-0.152-0.144-0.248-0.208
			l-72.8-49.16c-5.44-3.504-7.208-10.84-3.968-16.456l 3.272-3.6c 3.24-5.592, 10.632-5.824, 16.080-2.32l 43.52,29.592
			c-10.304-83-77.368-146.696-159.48-154.088L 271.976,320.512 L 336,320.512 c 8.832,0, 16,7.168, 16,16s-7.168,16-16,16l-64.72,0 
			c-0.12,0.416-0.224,0.832-0.384,1.232c 28.552,6.64, 49.848,32.184, 49.848,62.768c0,35.624-28.872,64.504-64.504,64.504
			c-35.624,0-64.496-28.872-64.496-64.504c0-30.408, 21.056-55.832, 49.368-62.64c-0.168-0.44-0.288-0.904-0.424-1.36L 176,352.512 c-8.832,0-16-7.168-16-16
			s 7.168-16, 16-16l 63.992,0 l0-320.792 c-82.088,7.392-149.080,71.064-159.408,154.056l 43.472-29.56c 5.44-3.504, 12.832-3.272, 16.072,2.32l 3.28,3.6
			c 3.24,5.608, 1.472,12.952-3.976,16.456l-72.8,49.16c-0.096,0.072-0.152,0.16-0.24,0.208l-4.928,3.168
			c-2.704,1.76-5.848,2.184-8.704,1.488c-2.872-0.68-5.456-2.496-7.096-5.296L 42.728,190.24c-0.056-0.096-0.048-0.192-0.104-0.296
			l-41.136-75.648c-3.248-5.584-1.472-12.936, 3.976-16.448l 4.56-1.712c 5.44-3.496, 12.128-0.32, 15.376,5.272l 23.952,44.488
			c 14.688-102.36, 102.552-178.912, 206.64-178.912c 104.032,0, 191.96,76.544, 206.68,178.856l 23.92-44.432c 3.248-5.592, 9.944-8.768, 15.384-5.272
			l 4.56,1.712C 511.984,101.36, 513.76,108.712, 510.512,114.296z M 223.752,416.512c0,17.92, 14.576,32.504, 32.496,32.504
			c 17.92,0, 32.504-14.576, 32.504-32.504s-14.576-32.504-32.504-32.504C 238.336,384.016, 223.752,398.592, 223.752,416.512z"  />
<glyph unicode="&#xe02a;" d="M 511.824,334.76c 0.232,11.832-2.952,39.424-38.92,49.032L 115.024,455.76l-3.328,0.344
			c-26.472,0-48-21.528-48-48l0-64.352 l-16,0.040c-26.376-0.112-47.816-21.576-47.816-47.984l0-255.904 c0-26.472, 21.528-48, 48-48l 416.232,0 
			c 26.472,0, 48,21.528, 48,48L 511.824,334.76z M 95.696,408.104c0,8.36, 6.44,15.232, 14.608,15.936l 353-71.44
			c 0.128-0.064-2.624-8.968-15.44-8.8L 95.696,343.8 L 95.696,408.104 z M 480.12,39.896c0-8.832-7.168-16-16-16L 47.88,23.896 c-8.832,0-16,7.168-16,16L 31.88,295.808 
			c0,8.832, 7.168,16, 16,16l 400.032,0 c 15.704,0, 32.2,5.352, 32.2,15.944L 480.112,39.896 z M 95.912,199.752c-17.672,0-32-14.328-32-32s 14.328-32, 32-32
			s 32,14.328, 32,32S 113.584,199.752, 95.912,199.752z"  />
<glyph unicode="&#xe02b;" d="M 496,144l-16.136,0 l0,0.808 c0,80.96-43.264,151.904-107.832,191.192l 80.408,0 
			c 5.544-9.52, 15.752-16, 27.56-16c 17.672,0, 32,14.328, 32,32s-14.328,32-32,32c-11.816,0-22.016-6.48-27.56-16L 304,368 l0,16 c0,8.832-7.168,16-16,16l-64,0 
			c-8.832,0-16-7.168-16-16l0-16 L 59.56,368 C 54.016,377.52, 43.816,384, 32,384c-17.672,0-32-14.328-32-32s 14.328-32, 32-32c 11.816,0, 22.016,6.48, 27.56,16l 80.4,0 
			C 75.392,296.704, 32.136,225.768, 32.136,144.808L 32.136,144 L 16,144 c-8.832,0-16-7.168-16-16l0-64 c0-8.832, 7.168-16, 16-16l 64,0 c 8.832,0, 16,7.168, 16,16l0,64 
			c0,8.832-7.168,16-16,16L 64.136,144 l0,0.808 c0,89.224, 61.232,164.336, 143.864,185.696L 208,320 c0-8.832, 7.168-16, 16-16l 64,0 c 8.832,0, 16,7.168, 16,16l0,10.504 
			c 82.632-21.368, 143.864-96.48, 143.864-185.696L 447.864,144 L 432,144 c-8.832,0-16-7.168-16-16l0-64 c0-8.832, 7.168-16, 16-16l 64,0 c 8.832,0, 16,7.168, 16,16l0,64 
			C 512,136.832, 504.832,144, 496,144z M 64,80L 32,80 l0,32 l 32,0 L 64,80 z M 272,336l-32,0 l0,32 l 32,0 L 272,336 z M 480,80l-32,0 l0,32 l 32,0 L 480,80 z"  />
<glyph unicode="&#xe02c;" d="M 480,448.2L 32,448.2 c-17.672,0-32-14.328-32-32l0-288.752 c0-17.672, 14.328-32, 32-32l 63.768,0 l0-79.656 
			c0-6.456, 3.872-12.264, 9.816-14.752c 2-0.84, 4.112-1.248, 6.184-1.248c 4.128,0, 8.168,1.592, 11.216,4.592l 92.512,91.064L 480,95.448 
			c 17.672,0, 32,14.328, 32,32L 512,416.2 C 512,433.872, 497.672,448.2, 480,448.2z M 480,127.456L 202.392,127.456 l-74.624-73.456l0,73.456 L 32,127.456 L 32,416.2 l 448,0 L 480,127.456 z
			 M 112,255.496l 288,0 c 8.832,0, 16,7.168, 16,16s-7.168,16-16,16L 112,287.496 c-8.832,0-16-7.168-16-16S 103.168,255.496, 112,255.496z M 112,319.496l 288,0 
			c 8.832,0, 16,7.168, 16,16s-7.168,16-16,16L 112,351.496 c-8.832,0-16-7.168-16-16S 103.168,319.496, 112,319.496z M 112,191.496l 192,0 c 8.832,0, 16,7.168, 16,16
			s-7.168,16-16,16L 112,223.496 c-8.832,0-16-7.168-16-16S 103.168,191.496, 112,191.496z"  />
<glyph unicode="&#xe02d;" d="M 256-32.080c-10.144,0-19.688,3.936-26.872,11.096L 10.872,197.264c-14.768,14.84-14.768,38.976-0.032,53.784l 79.952,79.936
	c 4.936,4.936, 12.512,6.112, 18.72,2.872c 6.184-3.232, 9.56-10.112, 8.344-16.984c-0.816-4.576-1.184-8.248-1.184-11.56
	c0-35, 28.488-64.072, 63.504-64.072c 35.048,0, 60.64,29.072, 60.64,64.072c0,35.048-25.592,63.544-60.64,63.544c-3.28,0-6.936-0.376-11.512-1.184
	c-6.936-1.28-13.752,2.16-16.984,8.344c-3.232,6.2-2.064,13.784, 2.872,18.72l 74.544,74.56c 14.44,14.376, 39.408,14.344, 53.784,0.032
	l 54.576-54.608c 11.392,35.408, 44.64,61.112, 83.768,61.112c 48.512,0, 87.984-39.488, 87.984-88.016c0-39.128-25.688-72.376-61.112-83.752
	l 53.016-52.984c 14.8-14.84, 14.8-38.976, 0.016-53.8L 282.904-20.952C 275.688-28.144, 266.144-32.080, 256-32.080z M 87.448,282.392l-53.952-53.936
	c-2.328-2.344-2.328-6.216, 0.032-8.592l 218.184-218.192c 3.064-3.032, 5.472-3.064, 8.592,0.032l 218.176,218.192
	c 2.344,2.36, 2.344,6.2-0.016,8.576l-76.952,76.904c-4.816,4.816-6.064,12.16-3.096,18.28s 9.424,9.752, 16.264,8.92l 2.44-0.312
	c 1.344-0.184, 2.688-0.408, 4.096-0.408c 30.872,0, 55.984,25.096, 55.984,55.952c0,30.888-25.112,56.016-55.984,56.016
	c-30.856,0-55.968-25.128-55.968-56.016c0-1.28, 0.2-2.528, 0.376-3.784l 0.344-2.856c 0.72-6.752-2.888-13.216-9.016-16.144
	c-6.080-2.904-13.408-1.656-18.2,3.128l-78.472,78.512c-3.064,3.032-5.472,3.064-8.592-0.032l-48.56-48.56
	c 41.64-10.312, 69.688-47.984, 69.688-92.768c0-52.656-39.96-96.064-92.648-96.064C 135.4,209.248, 97.744,240.784, 87.448,282.392z"  />
<glyph unicode="&#xe02e;" d="M 476.368,352.536l-60.36,0 L 416.008,479.76 L 95.992,479.76 l0-127.224 L 35.632,352.536 c-19.656,0-35.656-16-35.656-35.672
			L-0.024,99.92 c0-19.672, 16-35.672, 35.656-35.672l 60.36,0 L 95.992-31.76 l 320.016,0 L 416.008,64.248 l 60.36,0 c 19.656,0, 35.656,16, 35.656,35.672L 512.024,316.864 
			C 512.024,336.536, 496.024,352.536, 476.368,352.536z M 127.992,448.256l 256.016,0 l0-95.72 L 127.992,352.536 L 127.992,448.256 z M 384.008,0.24L 127.992,0.24 L 127.992,176.44 l 256.016,0 
			L 384.008,0.24 z M 480.024,99.92c0-2.040-1.64-3.672-3.656-3.672l-60.36,0 L 416.008,208.44 L 95.992,208.44 l0-112.184 L 35.632,96.256 c-2.016,0-3.656,1.632-3.656,3.672
			L 31.976,316.864 c0,2.032, 1.64,3.672, 3.656,3.672l 440.736,0 c 2.016,0, 3.656-1.64, 3.656-3.672L 480.024,99.92 z M 416,288.28l-16,0 c-8.832,0-16-7.168-16-16
			s 7.168-16, 16-16l 16,0 c 8.832,0, 16,7.168, 16,16S 424.832,288.28, 416,288.28z"  />
<glyph unicode="&#xe02f;" d="M 512,319.752c0,17.672-14.328,32-32,32l-54.624,0 c 14.136,13.944, 23.184,32.224, 23.184,54.736c0,27.72-15.92,57.832-60.608,57.832
			c-58.8,0-107.92-62.608-131-97.704C 233.856,401.704, 183.232,464.312, 124.44,464.312c-44.688,0-60.608-30.112-60.608-57.832
			c0-22.504, 9.296-40.792, 23.72-54.736L 32,351.744 c-17.672,0-32-14.328-32-32l0-95.784 l 32.28,0 l0-208.28 c0-17.672, 14.328-32, 32-32l 383.84,0 c 17.672,0, 32,14.328, 32,32
			L 480.12,223.968 L 512,223.968 L 512,319.752 z M 387.952,432.312c 19.784,0, 28.608-8.312, 28.608-25.832c0-35.544-39.672-54.72-76.984-54.72l-54.168,0 
			C 308.144,385.528, 348.16,432.312, 387.952,432.312z M 124.44,432.312c 39.8,0, 81.328-46.784, 104.064-80.544l-54.184,0 
			c-37.312,0-78.488,19.672-78.488,55.216C 95.832,424.496, 104.656,432.312, 124.44,432.312z M 480,255.968L 272,255.968 l0,63.784 l 208,0 L 480,255.968 z M 32,319.752l 208,0 l0-63.784 
			L 32,255.968 L 32,319.752 z M 64.28,223.968L 240,223.968 l0-208.28 L 64.28,15.688 L 64.28,223.968 z M 448.128,15.688L 272,15.688 L 272,223.968 l 176.128,0 L 448.128,15.688 z"  />
<glyph unicode="&#xe030;" d="M 16.88,448.12l 224,0 c 8.832,0, 16,7.168, 16,16s-7.168,16-16,16l-224,0 c-8.832,0-16-7.168-16-16
			S 8.040,448.12, 16.88,448.12z M 16.88,352.12l 224,0 c 8.832,0, 16,7.168, 16,16s-7.168,16-16,16l-224,0 c-8.832,0-16-7.168-16-16S 8.040,352.12, 16.88,352.12z
			 M 256.88,272.12c0,8.832-7.168,16-16,16l-224,0 c-8.832,0-16-7.168-16-16s 7.168-16, 16-16l 224,0 C 249.712,256.12, 256.88,263.288, 256.88,272.12z
			 M 506.44,317.728L 349.984,474.176c-4.952,4.96-12.328,5.92-18.296,3.008c-6.272-2.168-10.808-8.056-10.808-15.064L 320.88,107.92 
			c-16.96,12.568-39.216,20.264-63.688,20.264c-53.032,0-96.048-35.888-96.048-80.144c0-44.264, 43.016-80.168, 96.048-80.168
			c 53.064,0, 96.048,35.904, 96.048,80.168c0,2.008-0.184,3.968-0.36,5.936L 352.88,426.024 l 130.92-130.928c 6.248-6.248, 16.384-6.248, 22.632,0
			C 512.68,301.344, 512.68,311.48, 506.44,317.728z M 320.88,46.488c-1.152-22.248-27.096-46.408-64.064-46.408
			c-37.824,0-64.176,25.28-64.176,47.936c0,22.672, 26.352,47.92, 64.176,47.92c 36.968,0, 62.912-24.128, 64.064-46.392L 320.88,46.488 z"  />
<glyph unicode="&#xe031;" d="M 507.424,290.168L 323.344,475.176c-3.968,3.984-9.688,5.608-15.16,4.248c-5.456-1.328-9.8-5.424-11.472-10.784
			c-11.080-35.656-12.36-67.92-3.896-97.344c-0.776-0.536-1.52-1.12-2.208-1.808L 205.056,283.952c-27.6,12.8-57.272,19.728-86.848,19.728
			c-18.8,0-37.232-2.784-54.784-8.232c-5.344-1.672-9.44-6-10.784-11.424c-1.344-5.44, 0.232-11.168, 4.184-15.144l 109.488-110.192
			L 13.232,3.168l-13.312-35.064l 32.184,12.44l 156.68,155.52l 110.912-111.632c 3.032-3.064, 7.144-4.72, 11.344-4.72
			c 1.264,0, 2.544,0.16, 3.816,0.456c 5.456,1.344, 9.8,5.44, 11.472,10.8c 14.488,46.616, 10.24,96.672-10.168,141.56l 87.352,87.368
			c 0.312,0.312, 0.528,0.664, 0.816,1c 13.184-3.768, 26.848-5.784, 41.024-5.784c 17.608,0, 36.28,2.528, 55.488,8.504
			c 5.344,1.656, 9.44,6, 10.784,11.424C 512.952,280.464, 511.376,286.192, 507.424,290.168z M 301.576,67.928L 100.184,270.632
			c 51.688,6.032, 107.424-14.8, 147.784-55.16C 288.128,175.32, 307.72,119.824, 301.576,67.928z M 300.112,201.728
			c-8.416,12.864-18.232,25.088-29.512,36.376c-11.232,11.232-23.504,21.128-36.48,29.664l 72.064,72.048c 7.352-12.784, 16.832-25, 28.504-36.664
			c 11.928-11.92, 24.544-21.568, 37.8-29.032L 300.112,201.728z M 357.312,325.776c-30.768,30.768-42.624,65.064-36.344,106.44l 143.456-144.2
			C 423.096,282.088, 388.624,294.464, 357.312,325.776z"  />
<glyph unicode="&#xe032;" d="M 480,440.048L 32,440.048 c-17.592,0-32-14.408-32-32l0-368.096 c0-17.592, 14.408-32, 32-32l 448,0 c 17.592,0, 32,14.408, 32,32L 512,408.048 
			C 512,425.64, 497.592,440.048, 480,440.048z M 480,39.952L 32,39.952 L 32,134.232 l 128.424,124.456l 132.392-132.248c 5.456-6.624, 15.168-5.784, 22.064-0.56
			l 58.44,52.904L 478.72,70.592c 0.4-0.4, 0.848-0.696, 1.28-1.040L 480,39.952 z M 480,115.104L 385.984,211.312
			c-5.704,5.624-14.64,6.2-20.968,1.376l-60.28-52.512L 172.264,291.216c-2.832,3.424-6.92,5.512-11.344,5.8
			c-4.408,0.16-8.752-1.28-11.984-4.312L 32,178.904L 32,408.048 l 448,0 L 480,115.104 z M 368,279.936c 17.64,0, 31.92,14.304, 31.92,31.92
			c0,17.608-14.28,31.912-31.92,31.912s-31.92-14.304-31.92-31.912C 336.080,294.24, 350.36,279.936, 368,279.936z"  />
<glyph unicode="&#xe033;" d="M 496.592,412.496L 336.112,479.032L 176.392,415.816L 15.408,479
			c-1.376,0.408-2.72,0.56-3.984,0.56C 4.856,479.592,0,474.688,0,467.312l0-415 c0-8.784, 6.936-17.936, 15.408-20.28l 161.168-63.592
			l 159.504,64.752l 160.512-63.064c 1.376-0.376, 2.72-0.56, 3.984-0.56c 6.56,0, 11.424,4.872, 11.424,12.248L 512,392.184 
			C 512,400.968, 505.064,410.128, 496.592,412.496z M 192,389.432l 128,50.152l0-380.752 l-128-50.592L 192,389.432 z M 32,436.656l 128-47.288l0-380.88 L 32,60.624L 32,436.656 z
			 M 480,11l-128,48.192L 352,439.104 l 128-55.192L 480,11 z"  />
<glyph unicode="&#xe034;" d="M 10.92,329.096l 237.544-129.36c 2.392-1.296, 5.016-1.952, 7.656-1.952c 2.608,0, 5.216,0.64, 7.592,1.92l 240.048,129.36
			c 5.232,2.816, 8.488,8.312, 8.408,14.264c-0.080,5.968-3.456,11.376-8.752,14.080L 265.856,478.048c-4.528,2.296-9.872,2.312-14.44,0.032
			L 11.392,357.44c-5.312-2.672-8.72-8.080-8.816-14.032S 5.704,331.936, 10.92,329.096z M 258.576,445.856L 461.656,342.72L 256.168,231.984
			L 53.080,342.576L 258.576,445.856z M 500.672,239.84l-47.488,24.112l-34.28-18.488l 40-20.312L 253.424,114.424L 50.328,225.016l 42.656,21.44L 58.8,265.080
			l-50.16-25.2c-5.312-2.672-8.72-8.080-8.816-14.032s 3.128-11.472, 8.344-14.312l 237.544-129.36c 2.392-1.296, 5.016-1.952, 7.656-1.952
			c 2.608,0, 5.216,0.64, 7.592,1.92l 240.048,129.36c 5.232,2.816, 8.488,8.312, 8.408,14.264C 509.344,231.736, 505.968,237.144, 500.672,239.84z
			 M 500.672,127.84l-44.984,22.112l-34.28-18.488l 37.504-18.312L 253.424,2.424L 50.328,113.016l 39.656,17.936l-34.184,18.624L 8.64,127.872
			c-5.312-2.672-8.72-8.080-8.816-14.032s 3.128-11.472, 8.344-14.312l 237.544-129.36c 2.392-1.296, 5.016-1.952, 7.656-1.952
			c 2.608,0, 5.216,0.64, 7.592,1.92l 240.048,129.36c 5.232,2.816, 8.488,8.312, 8.408,14.264C 509.344,119.736, 505.968,125.144, 500.672,127.84z"  />
<glyph unicode="&#xe035;" d="M 511.368,8.68l-41.704,251.888c-3.72,32.656-33.488,59.216-66.36,59.216l-35.328,0 l0,42.64 c0,65.080-46.424,118.016-111.488,118.016
			c-65.048,0-112.472-52.936-112.472-118.016l0-42.64 L 105.68,319.784 c-32.872,0-62.64-26.56-66.264-58.528l-38.64-252.080
			c-1.488-13.28, 1.112-23.752, 7.704-31.144c 6.216-6.952, 15.264-10.488, 26.872-10.488l 436.784,0 c 16.456,0, 25.888,6.608, 30.92,12.16
			C 507.664-15.192, 512.88-6.224, 511.368,8.68z M 176.024,362.432c0,47.424, 33.064,86.016, 80.472,86.016s 79.488-38.592, 79.488-86.016l0-42.64 
			L 176.024,319.792 L 176.024,362.432 z M 473.584-0.224L 37.336-0.448c-2.752,0-5.504,1.472-4.856,5.344l 38.624,252.048c 1.92,16.72, 17.752,30.84, 34.576,30.84
			l 38.344,0 l0-36.464 C 134.488,245.784, 128,235.576, 128,223.752c0-17.672, 14.328-32, 32-32s 32,14.328, 32,32c0,11.808-6.464,22-15.976,27.544l0,36.496 l 159.952,0 
			l0-36.496 C 326.472,245.752, 320,235.552, 320,223.752c0-17.672, 14.328-32, 32-32s 32,14.328, 32,32c0,11.824-6.488,22.032-16.024,27.576l0,36.464 l 35.328,0 
			c 16.832,0, 32.656-14.128, 34.704-31.72l 41.672-251.64C 479.88,2.384, 478.272-0.224, 473.584-0.224z"  />
<glyph unicode="&#xe036;" d="M 464.752,272.792c0,84.392-44.488,160.936-118.984,204.784c-7.624,4.504-17.44,1.936-21.904-5.688
			c-4.472-7.608-1.936-17.424, 5.688-21.904c 64.624-38.016, 103.2-104.264, 103.2-177.184c0-121.184-87.968-209.144-209.16-209.144
			c-27.096,0-53.392,5.080-78.16,15.080c-8.184,3.328-17.528-0.64-20.832-8.832c-3.312-8.2, 0.64-17.528, 8.832-20.832
			c 28.608-11.56, 58.936-17.424, 90.16-17.424c 0.096,0, 0.192,0.008, 0.288,0.008l0-31.504 l-46.464,0 c-9.232,0-16.72-7.152-16.72-15.976
			c0-8.824, 7.488-15.968, 16.72-15.968L 303.84-31.792 c 9.232,0, 16.72,7.152, 16.72,15.968c0,8.832-7.488,15.976-16.72,15.976l-48.192,0 l0,33.4 
			C 378.552,47.832, 464.752,144.008, 464.752,272.792z M 399.688,271.352c0,97.328-78.872,176.704-176.2,176.704
			c-97.344,0-176.232-79.376-176.232-176.704s 78.888-175.72, 176.232-175.72C 320.816,95.632, 399.688,174.024, 399.688,271.352z M 79.248,271.352
			c0,79.512, 64.704,144.704, 144.232,144.704c 79.512,0, 144.2-65.184, 144.2-144.704s-64.688-143.72-144.2-143.72
			C 143.952,127.632, 79.248,191.832, 79.248,271.352z"  />
<glyph unicode="&#xe037;" d="M 512.512,224c0,136.008-106.832,247.552-241.16,255.512c-2.768,0.304-5.544,0.504-8.36,0.504c-0.832,0-1.664-0.088-2.496-0.112
			C 259,479.928, 257.512,480.016, 256,480.016C 114.56,480.016-0.512,365.168-0.512,224c0-141.168, 115.072-256.016, 256.512-256.016
			c 1.512,0, 3,0.088, 4.504,0.12c 0.832-0.032, 1.664-0.12, 2.496-0.12c 2.816,0, 5.592,0.2, 8.36,0.504
			C 405.68-23.552, 512.512,87.976, 512.512,224z M 464.784,141.584c-8.816,2.56-30.96,8.12-70.032,12.696c 3.232,22.096, 5,45.448, 5,69.72
			c0,19.128-1.104,37.672-3.144,55.504c 49.504,5.912, 71.192,13.36, 72.648,13.872l-5.96,16.792c 11.12-26.544, 17.28-55.648, 17.28-86.168
			C 480.576,194.904, 474.936,167.12, 464.784,141.584z M 142.744,224c0,17.904, 1.184,35.384, 3.352,52.2c 25.944-2.040, 56.968-3.544, 93.432-3.896
			l0-111.032 c-35.496-0.344-65.832-1.784-91.344-3.736C 144.664,178.632, 142.744,200.976, 142.744,224z M 271.472,445.888
			c 39.232-11.368, 72.824-65.848, 87.872-138.056c-24.184-1.928-53.312-3.336-87.872-3.664L 271.472,445.888 z M 239.528,445.496l0-141.312 
			c-34.184,0.344-63.44,1.736-88.032,3.616C 166.848,379.104, 200.712,433.176, 239.528,445.496z M 239.528,129.384l0-126.872 
			c-36.2,11.488-68.096,59.288-84.68,123.512C 178.728,127.776, 206.896,129.056, 239.528,129.384z M 271.472,2.112l0,127.28 
			c 32.976-0.312, 61.032-1.64, 84.608-3.464C 339.776,60.864, 308.080,12.72, 271.472,2.112z M 271.472,161.272L 271.472,272.288 
			c 36.656,0.344, 67.496,1.888, 93.096,4c 2.104-16.848, 3.248-34.352, 3.248-52.296c0-23.064-1.856-45.432-5.264-66.56
			C 337.344,159.472, 307.152,160.936, 271.472,161.272z M 457.4,323.032c-4.832-1.504-25.032-7.24-65.512-12.016
			C 382.864,358.992, 366.552,400, 345.328,429.6C 394.096,408.408, 433.896,370.448, 457.4,323.032z M 179.408,434.704
			c-26.104-29.976-47.416-73.080-59.048-124.056c-36.24,3.928-57.96,8.544-66.656,10.64C 79.064,373.608, 124.224,414.664, 179.408,434.704z
			 M 41.816,291.408c 6.16-1.672, 29.456-7.472, 72.776-12.264c-2.48-17.72-3.84-36.152-3.84-55.152c0-24.136, 2.184-47.36, 6.12-69.344
			c-37.2-4.016-60.080-8.824-70.344-11.304C 36.808,168.392, 31.424,195.568, 31.424,224C 31.424,247.48, 35.080,270.128, 41.816,291.408z M 60.544,113.824
			c 11.632,2.472, 32.456,6.232, 63.296,9.464c 12.144-44.856, 31.896-82.808, 55.568-109.984C 128.848,31.664, 86.76,67.68, 60.544,113.824z
			 M 345.328,18.408c 19.112,26.632, 34.24,62.512, 43.648,104.4c 31.704-3.64, 51.608-7.896, 61.648-10.432
			C 426.616,70.84, 389.696,37.68, 345.328,18.408z"  />
<glyph unicode="&#xe038;" d="M 112,424L 16,424 C 7.168,424,0,416.832,0,408l0-96 c0-8.832, 7.168-16, 16-16s 16,7.168, 16,16L 32,392 l 80,0 
			c 8.832,0, 16,7.168, 16,16S 120.832,424, 112,424z M 496,152c-8.832,0-16-7.168-16-16l0-80 L 400,56 c-8.832,0-16-7.168-16-16s 7.168-16, 16-16l 96,0 c 8.832,0, 16,7.168, 16,16
			L 512,136 C 512,144.832, 504.832,152, 496,152z M 112,56L 32,56 L 32,136 c0,8.832-7.168,16-16,16s-16-7.168-16-16l0-96 c0-8.832, 7.168-16, 16-16l 96,0 c 8.832,0, 16,7.168, 16,16
			S 120.832,56, 112,56z M 496,424L 400,424 c-8.832,0-16-7.168-16-16s 7.168-16, 16-16l 80,0 l0-80 c0-8.832, 7.168-16, 16-16s 16,7.168, 16,16L 512,408 C 512,416.832, 504.832,424, 496,424z"  />
<glyph unicode="&#xe039;" d="M 480.080,376l-240,0 l-48,48l-160,0 c-17.672,0-32-14.328-32-32l0-80 l-0.152,0 l0-32 l 0.152,0 l0-224 
			c0-17.672, 14.328-32, 32-32l 448,0 c 17.672,0, 32,14.328, 32,32L 512.080,344 C 512.080,361.672, 497.752,376, 480.080,376z M 32.072,392l 145.376,0 l 39.312-38.624L 226.816,344L 480.080,344 
			l0-32 l-448,0 L 32.080,392 z M 32.072,56L 32.072,280 l 448,0 l0-224 L 32.072,56 z"  />
<glyph unicode="&#xe03a;" d="M 400,343.856l 32,0 c 8.832,0, 16,7.168, 16,16l0,16 c0,8.832-7.168,16-16,16l-32,0 c-8.832,0-16-7.168-16-16l0-16 C 384,351.024, 391.168,343.856, 400,343.856z
			 M 400,247.856l 32,0 c 8.832,0, 16,7.168, 16,16l0,16 c0,8.832-7.168,16-16,16l-32,0 c-8.832,0-16-7.168-16-16l0-16 C 384,255.024, 391.168,247.856, 400,247.856z
			 M 400,151.856l 32,0 c 8.832,0, 16,7.168, 16,16l0,16 c0,8.832-7.168,16-16,16l-32,0 c-8.832,0-16-7.168-16-16l0-16 C 384,159.024, 391.168,151.856, 400,151.856z
			 M 400,55.856l 32,0 c 8.832,0, 16,7.168, 16,16l0,16 c0,8.832-7.168,16-16,16l-32,0 c-8.832,0-16-7.168-16-16l0-16 C 384,63.024, 391.168,55.856, 400,55.856z
			 M 80,343.856l 32,0 c 8.832,0, 16,7.168, 16,16l0,16 c0,8.832-7.168,16-16,16l-32,0 c-8.832,0-16-7.168-16-16l0-16 C 64,351.024, 71.168,343.856, 80,343.856z
			 M 80,247.856l 32,0 c 8.832,0, 16,7.168, 16,16l0,16 c0,8.832-7.168,16-16,16l-32,0 c-8.832,0-16-7.168-16-16l0-16 C 64,255.024, 71.168,247.856, 80,247.856z
			 M 80,151.856l 32,0 c 8.832,0, 16,7.168, 16,16l0,16 c0,8.832-7.168,16-16,16l-32,0 c-8.832,0-16-7.168-16-16l0-16 C 64,159.024, 71.168,151.856, 80,151.856z
			 M 80,55.856l 32,0 c 8.832,0, 16,7.168, 16,16l0,16 c0,8.832-7.168,16-16,16l-32,0 c-8.832,0-16-7.168-16-16l0-16 C 64,63.024, 71.168,55.856, 80,55.856z M 480,472.048
			L 32,472.048 c-17.592,0-32-14.408-32-32l0-432.096 c0-17.592, 14.408-32, 32-32l 448,0 c 17.592,0, 32,14.408, 32,32L 512,440.048 C 512,457.64, 497.592,472.048, 480,472.048z M 480,7.952L 32,7.952 
			L 32,440.048 l 448,0 L 480,7.952 z"  />
<glyph unicode="&#xe03b;" d="M 50.936,314.872c-9.064,0-16.384-7.328-16.384-16.384c0-9.048, 7.32-16.384, 16.384-16.384c 151.504,0, 262.672-112.184, 262.672-263.68
			c0-9.048, 7.328-16.376, 16.384-16.376s 16.384,7.328, 16.384,16.376C 346.376,188.608, 221.112,314.872, 50.936,314.872z M 51.080,478.688
			c-9.056,0-16.384-7.328-16.384-16.384c0-9.056, 7.328-16.384, 16.384-16.384c 235.088,0, 426.336-191.248, 426.336-426.328
			c0-9.048, 7.328-16.376, 16.384-16.376s 16.384,7.328, 16.384,16.376C 510.176,272.736, 304.224,478.688, 51.080,478.688z M 92.008,150.2
			c-49.736,0-90.184-40.56-90.184-90.44c0-49.856, 40.456-90.456, 90.184-90.456s 90.2,40.592, 90.2,90.456
			C 182.208,109.64, 141.744,150.2, 92.008,150.2z M 92.008,0.984c-32.304,0-58.584,26.376-58.584,58.784s 26.28,58.768, 58.584,58.768
			c 32.312,0, 58.608-26.36, 58.608-58.768S 124.32,0.984, 92.008,0.984z"  />
<glyph unicode="&#xe03c;" d="M 511.92,193.728c 0.048,10.528-1.608,50.248-2.872,61.608
			C 494.488,385.712, 388.672,480.336, 257.456,480.336c-136.672,0-247.408-105.312-254.92-244.952c-0.16-3.048-1.28-24.672-1.36-37.544l-0.040-7.16
			c-0.656-2.96-1.056-6.016-1.056-9.168l0-107.328 c0-23.44, 19.064-42.504, 42.504-42.504l 43.144,0 c 23.44,0, 42.512,19.064, 42.512,42.504L 128.24,181.504 
			c0,23.44-19.080,42.504-42.512,42.504L 42.576,224.008 c-2.944,0-5.816-0.304-8.592-0.872c 0.24,5.192, 0.456,9.288, 0.512,10.528
			C 41.080,356.056, 138.064,448.336, 257.456,448.336c 114.64,0, 207.064-82.672, 219.784-196.56c 0.536-4.752, 1.224-16.832, 1.776-28.96
			c-3.096,0.72-6.288,1.192-9.6,1.192l-42.64,0 c-23.44,0-42.504-19.064-42.504-42.504l0-106.832 c0-16.184, 9.2-30.128, 22.544-37.296l-102.72-40.328
			l0,2.608 c0,8.832-7.168,16-16,16l-48,0 c-8.832,0-16-7.168-16-16l0-16 c0-8.832, 7.168-16, 16-16l 48,0 c 0.136,0, 0.256,0.040, 0.392,0.040l 28.68,0.112
			l 164.776,64.688c 2.16,0.896, 3.992,2.232, 5.496,3.832c 14.424,6.808, 24.496,21.368, 24.496,38.344L 511.936,181.504 c0,2.608-0.32,5.144-0.776,7.616
			C 511.6,190.592, 511.912,192.12, 511.92,193.728z M 42.576,192.008l 43.144,0 c 5.8,0, 10.512-4.704, 10.512-10.504l0-107.328 
			c0-5.8-4.72-10.504-10.512-10.504L 42.576,63.672 c-5.8,0-10.504,4.704-10.504,10.504L 32.072,181.504 C 32.080,187.304, 36.784,192.008, 42.576,192.008z
			 M 416.264,181.504c0,5.8, 4.704,10.504, 10.504,10.504l 42.64,0 c 5.8,0, 10.512-4.704, 10.512-10.504l0-106.832 c0-5.8-4.72-10.504-10.512-10.504
			l-42.64,0 c-5.8,0-10.504,4.704-10.504,10.504L 416.264,181.504 z"  />
<glyph unicode="&#xe03d;" d="M 511.92,177.72c 0.048,10.528-1.608,50.248-2.872,61.608C 494.488,369.704, 388.672,464.328, 257.456,464.328
			c-136.672,0-247.408-105.312-254.92-244.952c-0.16-3.048-1.28-24.672-1.36-37.544l-0.040-7.16c-0.656-2.96-1.056-6.016-1.056-9.168
			l0-139.328 c0-23.44, 19.064-42.504, 42.504-42.504l 43.144,0 c 23.44,0, 42.512,19.064, 42.512,42.504L 128.24,165.496 c0,23.44-19.080,42.504-42.512,42.504L 42.568,208 
			c-2.944,0-5.816-0.304-8.592-0.872c 0.24,5.192, 0.456,9.296, 0.512,10.528C 41.080,340.048, 138.056,432.328, 257.456,432.328
			c 114.64,0, 207.064-82.672, 219.784-196.56c 0.544-4.752, 1.232-16.832, 1.784-28.96C 475.904,207.528, 472.72,208, 469.408,208l-42.64,0 
			c-23.44,0-42.504-19.064-42.504-42.504l0-138.832 c0-23.448, 19.064-42.504, 42.504-42.504l 42.64,0 c 23.44,0, 42.512,19.064, 42.512,42.504L 511.92,165.496 
			c0,2.608-0.32,5.144-0.784,7.608C 511.6,174.576, 511.904,176.112, 511.92,177.72z M 42.568,176l 43.144,0 c 5.8,0, 10.512-4.704, 10.512-10.504
			l0-139.328 c0-5.808-4.72-10.504-10.512-10.504L 42.568,15.664 c-5.8,0-10.504,4.704-10.504,10.504L 32.064,165.496 C 32.080,171.296, 36.784,176, 42.568,176z
			 M 479.92,26.672c0-5.8-4.72-10.504-10.512-10.504l-42.64,0 c-5.8,0-10.504,4.704-10.504,10.504L 416.264,165.496 c0,5.8, 4.704,10.504, 10.504,10.504
			l 42.64,0 c 5.8,0, 10.512-4.704, 10.512-10.504L 479.92,26.672 z"  />
<glyph unicode="&#xe03e;" d="M 255.2-31.352c-96.656,0-175.296,77.56-175.296,172.888c0,111.344, 155.816,322.424, 162.456,331.36
	c 3,4.032, 7.704,6.424, 12.736,6.456c 5.592,0.048, 9.784-2.296, 12.832-6.28c 6.704-8.768, 164.168-216.112, 164.168-331.528
	C 432.096,46.208, 352.736-31.352, 255.2-31.352z M 255.376,436.152c-37.2-52.832-143.472-211.032-143.472-294.608
	c0-77.688, 64.28-140.888, 143.296-140.888c 79.888,0, 144.888,63.2, 144.888,140.888C 400.096,228.224, 293.016,384.056, 255.376,436.152z"  />
<glyph unicode="&#xe03f;" d="M 511.488,225.008L 452.736,428.552c-1.92,6.936-8.232,11.736-15.424,11.736L 69.64,440.288 c-7.248,0-13.592-4.872-15.472-11.888L 0.472,235.224
			c-0.992-3.752-0.504-7.504, 1-10.768C 0.608,221.56,0,218.544,0,215.368l0-175.656 c0-17.672, 14.328-32, 32-32l 448,0 c 17.672,0, 32,14.328, 32,32L 512,215.368 
			c0,0.856-0.184,1.664-0.248,2.504C 512.168,220.168, 512.16,222.592, 511.488,225.008z M 81.952,408.288l 343.184,0 l 46.56-160.92L 322.528,247.368 
			c-0.72-38.408-27.952-64.84-66.528-64.84s-65.312,26.44-66.032,64.84L 37.080,247.368 L 81.952,408.288z M 480,39.712L 32,39.712 L 32,215.368 l 131.56,0 
			c 13.968-40.216, 47.888-64.84, 92.44-64.84s 78.968,24.624, 92.936,64.84L 480,215.368 L 480,39.712 z"  />
<glyph unicode="&#xe040;" d="M 384,480L 208,480 c-17.672,0-32-14.328-32-32l 176,0 l0-128 l 128,0 l0-256 L 368,64 l0-32 l 112,0 c 17.672,0, 32,14.328, 32,32L 512,351.992 L 384,480z M 384,352L 384,434.752 L 466.736,352L 384,352 z M 32,416
			c-17.672,0-32-14.328-32-32l0-384 c0-17.672, 14.328-32, 32-32l 272,0 c 17.672,0, 32,14.328, 32,32L 336,287.992 L 208,416L 32,416 z M 304,0L 32,0 L 32,384 l 144,0 l0-128 l 128,0 L 304,0 z M 208,288L 208,370.752 
			L 290.736,288L 208,288 z"  />
<glyph unicode="&#xe041;" d="M 508.528,386.968L 458.68,442.64c-3.032,3.424-7.392,5.376-11.968,5.376L 271.584,448.016 L 271.584,465 c0,8.28-7.168,15-16,15
			c-8.832,0-16-6.72-16-15l0-16.984 L 111.68,448.016 c-8.84,0-16-7.16-16-16l0-111.832 c0-8.84, 7.16-16, 16-16l 127.904,0 l0-32.048 L 65.288,272.136 
			c-4.576,0-8.936-1.952-11.968-5.376l-49.84-56.656c-5.376-6.064-5.376-15.184,0-21.248l 49.84-56.144c 3.056-3.424, 7.392-4.872, 11.968-4.872
			l 174.296,0 l0-144.84 c0-8.28, 7.168-15, 16-15c 8.832,0, 16,6.72, 16,15L 271.584,127.84 l 128.232,0 c 8.84,0, 16,7.16, 16,16L 415.816,256.144 c0,8.84-7.16,16-16,16
			L 271.584,272.144 l0,32.048 l 175.128,0 c 4.576,0, 8.936,1.952, 11.968,5.376l 49.848,56.16C 513.896,371.784, 513.896,380.904, 508.528,386.968z M 383.824,159.84
			L 72.48,159.84 l-35.64,39.64l 35.64,40.656l 311.344,0 L 383.824,159.84 z M 439.52,336.184L 127.68,336.184 L 127.68,416.016 l 311.84,0 l 35.64-39.672L 439.52,336.184z"  />
<glyph unicode="&#xe042;" d="M 483.456,330.92l-89.56,96C 390.856,430.16, 386.624,432, 382.184,432L 248.624,432 l-0.504,33c0,8.28-7.168,15-16,15
			c-8.832,0-15-6.72-15-15L 216.632,432L 40.248,432 c-8.84,0-16-7.16-16-16l0-192 c0-8.84, 7.16-16, 16-16l 176.168,0 l0-225 
			c0-8.28, 7.168-15, 16-15c 8.832,0, 16,6.72, 16,15L 248.416,208 l 133.768,0 c 4.44,0, 8.672,1.84, 11.704,5.080l 89.56,96
			C 489.184,315.232, 489.184,324.768, 483.456,330.92z M 375.232,240L 56.248,240 L 56.248,400 l 318.984,0 l 74.64-80L 375.232,240z"  />
<glyph unicode="&#xe043;" d="M 509.36,332.264L 439.424,465.984C 435.344,473.784, 424.792,480.16, 416,480.16L 255.032,480.16 c-0.176,0.008-0.352,0.056-0.528,0.064
			c-0.144,0-0.28-0.056-0.424-0.064L 96,480.16 c-8.8,0-19.376-6.36-23.512-14.128L 2.736,334.888c-4.144-7.768-3.312-19.968, 1.816-27.128
			L 244.56-26.816c 2.576-3.592, 6-5.408, 9.416-5.408c 3.392,0, 6.792,1.768, 9.384,5.296L 507.312,305.2
			C 512.504,312.296, 513.44,324.472, 509.36,332.264z M 471.184,336.184L 385.456,336.184 l 34.328,98.304L 471.184,336.184z M 287.672,448.16l 102.984,0 l-31.944-91.464
			L 287.672,448.16z M 334.12,336.184L 185.296,336.184 l 70.336,101.048L 334.12,336.184z M 156.944,351.456L 124.856,448.16l 99.408,0 L 156.944,351.456z
			 M 340.376,304.184L 254.36,57.912L 172.632,304.184L 340.376,304.184 z M 218.464,64.456L 46.496,304.184l 92.416,0 L 218.464,64.456z M 374.272,304.184l 92.584,0 
			L 290.368,63.904L 374.272,304.184z M 94.24,438.792l 34.048-102.608L 39.664,336.184 L 94.24,438.792z"  />
<glyph unicode="&#xe044;" d="M 416.28,272.104c-4.168,0-17.6,0.080-32.152,0.184l 0.056,31.984c0,17.672-14.328,32-32,32
			l-320.248,0.080c-17.672,0-32-14.328-32-32l0-240.472 c0-53.016, 42.984-96, 96-96l 192.328,0 c 53.016,0, 95.504,42.984, 95.504,96l 0.032,16.424
			c 14.512-0.112, 29.304-0.2, 32.488-0.2c 52.888,0, 95.784,42.52, 95.784,95.536C 512.064,228.664, 469.168,272.104, 416.28,272.104z
			 M 351.768,63.88c0-35.296-28.2-64-63.504-64L 95.936-0.12 c-35.296,0-64,28.704-64,64L 31.888,304.352l 0.048,0 l 320.248-0.096L 351.768,63.88z
			 M 416.28,111.64c-3.176,0-17.944,0.096-32.432,0.2l 0.224,128.408c 14.56-0.104, 28.024-0.184, 32.2-0.184
			c 36.56,0, 64.312-27.272, 64.312-63.92S 452.84,111.64, 416.28,111.64z M 287.936,368.12c 8.832,0, 16,7.168, 16,16l0,80 c0,8.832-7.168,16-16,16
			s-16-7.168-16-16l0-80 C 271.936,375.28, 279.104,368.12, 287.936,368.12z M 95.936,368.12c 8.832,0, 16,7.168, 16,16l0,80 c0,8.832-7.168,16-16,16
			s-16-7.168-16-16l0-80 C 79.936,375.28, 87.104,368.12, 95.936,368.12z M 191.936,368.12c 8.832,0, 16,7.168, 16,16l0,80 c0,8.832-7.168,16-16,16
			s-16-7.168-16-16l0-80 C 175.936,375.28, 183.104,368.12, 191.936,368.12z"  />
<glyph unicode="&#xe045;" d="M 366.592,339.864l-156.576-67.32c-2.832-1.44-5.128-3.736-6.576-6.576L 131.712,121.36
			c-2.936-5.768-1.872-12.768, 2.656-17.392c 2.904-2.952, 6.816-4.512, 10.768-4.512c 2.216,0, 4.472,0.488, 6.56,1.504l 152.864,63.488
			c 2.8,1.344, 5.112,3.528, 6.608,6.248l 75.44,148.448c 3.216,5.8, 2.264,13.016-2.328,17.784C 379.672,341.696, 372.488,342.864, 366.592,339.864
			z M 178.928,147.592l 43.504,88.84l 43.936-54.992L 178.928,147.592z M 292.352,200.192l-44.4,55.576l 88.392,34.88L 292.352,200.192z M 256,480
			C 114.616,480,0,365.384,0,224c0-141.392, 114.616-256, 256-256c 141.392,0, 256,114.608, 256,256C 512,365.384, 397.392,480, 256,480z M 256-0.504
			C 132.488-0.504, 32,100.488, 32,224S 132.488,448, 256,448s 224-100.488, 224-224S 379.512-0.504, 256-0.504z"  />
<glyph unicode="&#xe046;" d="M 500.176,94.192c-7.832,5.504-93.528,62.488-104.032,68.904
			c-4.576,2.8-10.16,4.168-16.232,4.168c-7.832,0-16.504-2.28-24.968-6.736c-8.248-4.344-33.232-18.56-45.456-25.544
			c-10.768,7.56-36.064,26.936-75.92,66.832c-39.608,39.592-59.16,65.096-66.768,75.92c 6.968,12.216, 21.168,37.2, 25.488,45.424
			c 8.184,15.504, 9.112,30.984, 2.472,41.424c-6.232,9.84-62.984,95.904-68.84,104c-5.512,7.64-15.408,11.768-26.144,11.768
			c-8.472,0-17.456-2.56-25.248-7.984C 73.776,471.832-1.52,417.24-0.52,386.192C 2.256,298.976, 87.008,196.48, 157.616,125.848
			s 173.112-155.408, 260.672-158.2l 0.72,0 c 30.656,0, 84.544,74.344, 85.064,75.080C 518.208,62.928, 513.056,85.168, 500.176,94.192z M 478.072,61.368
			c-20.296-28.112-49.112-57.472-60.392-61.672c-60.016,2.816-144.232,55.56-237.44,148.784C 87.040,241.712, 34.304,325.832, 31.52,385.648
			c 4.048,11.312, 33.408,40.312, 61.264,60.456c 2.064,1.424, 4.608,2.248, 6.984,2.248c 0.528,0, 0.968-0.048, 1.312-0.112
			c 9-13.080, 57.312-86.216, 66.080-99.888c 0.032-1.44-0.456-5.096-3.2-10.312c-2.92-5.56-12.016-21.768-24.952-44.44l-10.064-17.64
			l 11.672-16.624c 8.704-12.36, 29.408-39.232, 70.312-80.144c 41.080-41.096, 67.856-61.736, 80.168-70.392l 16.624-11.672l 17.64,10.080
			c 17.096,9.768, 37.752,21.472, 44.472,25c 5.392,2.84, 9.080,3.064, 10.080,3.064c 0.16,0, 0.296,0, 0.408-0.016
			c 12.248-7.688, 86.968-57.296, 100.16-66.344C 480.696,67.632, 480.496,64.848, 478.072,61.368z M 341.952,288.864L 479.576,425.648l-0.44-77.528
			c-0.144-6.472, 4.984-12.096, 11.456-11.944l 8.208,0.008c 6.48,0.16, 11.824,4, 11.96,10.464l 0.328,115.504
			c0,0.112-0.432,0.192-0.432,0.304l 0.632,5.856c 0.064,3.248-0.688,6.144-2.8,8.216c-2.064,2.088-4.968,3.36-8.192,3.272
			l-5.848-0.136c-0.112,0-0.2-0.048-0.328-0.064L 379.384,480.112c-6.464-0.144-11.808-5.488-11.96-11.96l-0.016-8.208
			c 0.984-7.616, 6.968-12.080, 13.44-11.936l 75.624-0.2L 319.328,311.496c-6.248-6.248-6.248-16.384,0-22.632
			C 325.576,282.624, 335.704,282.624, 341.952,288.864z"  />
<glyph unicode="&#xe047;" d="M 500.176,94.192c-7.832,5.504-93.528,62.488-104.032,68.904
			c-4.576,2.8-10.16,4.168-16.232,4.168c-7.832,0-16.504-2.28-24.968-6.736c-8.248-4.344-33.232-18.56-45.456-25.544
			c-10.768,7.56-36.064,26.936-75.92,66.832c-39.608,39.592-59.16,65.096-66.768,75.92c 6.968,12.216, 21.168,37.2, 25.488,45.424
			c 8.184,15.504, 9.112,30.984, 2.472,41.424c-6.232,9.84-62.984,95.904-68.84,104c-5.512,7.64-15.408,11.768-26.144,11.768
			c-8.472,0-17.456-2.56-25.248-7.984C 73.776,471.832-1.52,417.24-0.52,386.192C 2.256,298.976, 87.008,196.48, 157.616,125.848
			s 173.112-155.408, 260.672-158.2l 0.72,0 c 30.656,0, 84.544,74.344, 85.064,75.080C 518.208,62.928, 513.056,85.168, 500.176,94.192z M 478.072,61.368
			c-20.296-28.112-49.112-57.472-60.392-61.672c-60.016,2.816-144.232,55.56-237.44,148.784C 87.040,241.712, 34.304,325.832, 31.52,385.648
			c 4.048,11.312, 33.408,40.312, 61.264,60.456c 2.064,1.424, 4.608,2.248, 6.984,2.248c 0.528,0, 0.968-0.048, 1.312-0.112
			c 9-13.080, 57.312-86.216, 66.080-99.888c 0.032-1.44-0.456-5.096-3.2-10.312c-2.92-5.56-12.016-21.768-24.952-44.44l-10.064-17.64
			l 11.672-16.624c 8.704-12.36, 29.408-39.232, 70.312-80.144c 41.080-41.096, 67.856-61.736, 80.168-70.392l 16.624-11.672l 17.64,10.080
			c 17.096,9.768, 37.752,21.472, 44.472,25c 5.392,2.84, 9.080,3.064, 10.080,3.064c 0.16,0, 0.296,0, 0.408-0.016
			c 12.248-7.688, 86.968-57.296, 100.16-66.344C 480.696,67.632, 480.496,64.848, 478.072,61.368z M 321.92,291.744
			c 2.064-2.088, 4.968-3.36, 8.192-3.272l 5.856,0.136c 0.112,0, 0.192,0.048, 0.32,0.056l 114.752-0.504
			c 6.456,0.152, 11.808,5.496, 11.96,11.968l 0.008,8.208c-0.976,7.616-6.968,12.080-13.432,11.936l-75.752,0.2l 130.976,130.8
			c 6.248,6.248, 6.248,16.384,0,22.632c-6.248,6.24-16.376,6.24-22.624,0L 350.84,342.744L 351.28,420.16c 0.144,6.464-4.984,12.096-11.448,11.944
			l-8.208-0.008c-6.48-0.16-11.832-4.008-11.968-10.472l-0.328-115.504c0-0.112, 0.44-0.192, 0.44-0.304l-0.64-5.856
			C 319.064,296.712, 319.824,293.824, 321.92,291.744z"  />
<glyph unicode="&#xe048;" d="M 480.848,380.224c0-0.528-0.048-0.968-0.112-1.312c-13.080-9-86.216-57.312-99.888-66.080c-1.44-0.032-5.096,0.456-10.312,3.2
	c-5.56,2.92-21.768,12.016-44.44,24.952l-17.64,10.064l-16.624-11.672c-12.36-8.704-39.232-29.408-80.144-70.312
	c-41.088-41.080-61.728-67.856-70.384-80.168l-11.672-16.624l 10.080-17.64c 9.768-17.096, 21.472-37.752, 25-44.472
	c 2.84-5.392, 3.064-9.080, 3.064-10.080c0-0.16,0-0.296-0.016-0.408c-7.68-12.248-57.296-86.968-66.336-100.16
	c-1.28-0.216-4.064-0.016-7.544,2.408C 65.752,22.224, 36.4,51.040, 32.192,62.32c 2.816,60.016, 55.56,144.232, 148.784,237.44
	C 274.208,392.96, 358.336,445.696, 418.152,448.48c 11.312-4.048, 40.312-33.408, 60.456-61.264C 480.024,385.152, 480.848,382.6, 480.848,380.224
	 M 511.848,380.224c0,8.472-2.56,17.456-7.984,25.248c-0.528,0.752-54.128,76.048-85.168,75.048C 331.48,477.744, 228.976,392.992, 158.344,322.384
	C 87.728,251.776, 2.944,149.272, 0.152,61.712l0-0.72 c0-30.656, 74.336-84.544, 75.072-85.064c 20.2-14.144, 42.44-8.984, 51.472,3.888
	c 5.504,7.832, 62.488,93.528, 68.904,104.032c 2.8,4.576, 4.168,10.16, 4.168,16.232c0,7.832-2.288,16.504-6.736,24.968
	c-4.344,8.248-18.56,33.232-25.544,45.456c 7.56,10.768, 26.936,36.064, 66.832,75.92c 39.592,39.608, 65.096,59.16, 75.92,66.768
	c 12.216-6.968, 37.2-21.168, 45.424-25.488c 15.504-8.184, 30.984-9.112, 41.424-2.472c 9.84,6.232, 94.904,62.984, 103,68.84
	C 507.728,359.6, 511.848,369.496, 511.848,380.224L 511.848,380.224z"  />
<glyph unicode="&#xe049;" d="M 480,480.048L 32,480.048 c-17.592,0-32-14.408-32-32l0-448.096 c0-17.592, 14.408-32, 32-32l 448,0 
			c 17.592,0, 32,14.408, 32,32L 512,448.048 C 512,465.64, 497.592,480.048, 480,480.048z M 480-0.048L 32-0.048 L 32,448.048 l 448,0 L 480-0.048 z M 112,303.848l 32,0 l0-32 c0-8.832, 7.168-16, 16-16
			s 16,7.168, 16,16l0,32 l 32,0 c 8.832,0, 16,7.168, 16,16s-7.168,16-16,16l-32,0 l0,32 c0,8.832-7.168,16-16,16s-16-7.168-16-16l0-32 l-32,0 c-8.832,0-16-7.168-16-16
			S 103.168,303.848, 112,303.848z M 216.568,184.424c-6.248,6.248-16.376,6.248-22.624,0L 160,150.488l-33.944,33.936
			c-6.248,6.248-16.376,6.248-22.632,0c-6.248-6.248-6.248-16.384,0-22.632l 33.936-33.936l-33.936-33.936c-6.248-6.248-6.248-16.384,0-22.632
			c 6.248-6.248, 16.376-6.248, 22.632,0L 160,105.216l 33.944-33.936c 6.248-6.248, 16.376-6.248, 22.624,0c 6.248,6.248, 6.248,16.384,0,22.632
			l-33.936,33.936l 33.936,33.936C 222.816,168.040, 222.816,178.168, 216.568,184.424z M 304,303.848l 96,0 c 8.832,0, 16,7.168, 16,16s-7.168,16-16,16L 304,335.848 
			c-8.832,0-16-7.168-16-16S 295.168,303.848, 304,303.848z M 304,143.848l 96,0 c 8.832,0, 16,7.168, 16,16s-7.168,16-16,16L 304,175.848 c-8.832,0-16-7.168-16-16
			S 295.168,143.848, 304,143.848z M 304,79.848l 96,0 c 8.832,0, 16,7.168, 16,16s-7.168,16-16,16L 304,111.848 c-8.832,0-16-7.168-16-16S 295.168,79.848, 304,79.848z"  />
<glyph unicode="&#xe04a;" d="M 212.408,140.328c 115.472,0, 204.952,65.952, 203.576,163.816c0,86.592-91.608,155.816-207.080,155.816
			c-115.488,0-209.080-69.224-209.080-155.816c0-53.936, 26.456-111.44, 81.704-139.688c0-0.328-0.096-0.576-0.096-0.936
			c0-23.44-19.512-55.576-27.2-68.832l 0.032,0 c-0.608-1.44-0.976-3-0.976-4.672c0-6.56, 5.288-11.832, 11.848-11.832
			c 0.968,0, 2.544,0.2, 3.112,0.2c 0.16,0, 0.216,0, 0.2-0.048c 40.832,6.672, 101.128,52.624, 110.064,63.512
			c 9.168-1.36, 15.36-1.576, 23.040-1.576C 204.816,140.28, 208.288,140.328, 212.408,140.328z M 165.344,174.768l-20.488-17.016
			c-4.752-5.488-25.4-22.72-43.176-33.904c 10.824,30.84, 10.352,40.608, 10.352,40.608l 1.504,19.576l-17.44,8.904
			c-44.336,22.672-64.264,69.872-64.264,111.2c0,68.832, 79.432,123.816, 177.080,123.816c 97.64,0, 175.080-54.984, 175.080-123.816
			c-0.304-76.304-72.936-132.312-170.576-132.312c0,0-14.904-0.576-30.2,1.688L 165.344,174.768z M 512.168,174.904
			c0,43.368-16.944,76.44-59.224,101.256c-1.032-11.536-4.32-23.912-7.896-34.784c 27.328-18.888, 35.128-38.28, 35.128-66.472
			c0-34.512-16.080-59.544-53.456-78.672l-15.92-7.904c0,0, 1.656-41, 4.112-51.376c-31.224,22.888-41.952,42-41.952,42l-16.832-2.592
			c-6.656-0.968-24.656-0.984-24.656-0.984c-43.472,0-75.688,10.36-103.168,31.872c 7.464,0.456-44.592,0.44-45.752-0.576
			c 31.784-38.816, 83.736-63.296, 148.92-63.296c 3.544,0, 6.544-0.032, 9.36-0.032c 6.64,0, 12,0.184, 19.92,1.344
			c 7.744-9.392, 51.112-50.752, 86.408-56.504c-0.016,0.032, 0.032,0.032, 0.184,0.032c 0.472,0, 1.84-0.168, 2.672-0.168
			c 5.672,0, 10.248,4.56, 10.248,10.232c0,1.44-0.328,2.8-0.84,4.032l 0.032,0 c-6.64,11.44-17.064,44.872-17.064,65.128
			c0,0.312-0.096,0.528-0.096,0.816C 490.048,92.672, 512.168,128.296, 512.168,174.904z"  />
<glyph unicode="&#xe04b;" d="M 480.008,384.264L 352.208,384.264 L 352.208,415.264 c0,26.472-21.528,48-48,48L 207.992,463.264 c-26.472,0-48-21.528-48-48l0-31 L 32.008,384.264 c-17.592,0-32-14.408-32-32l0-112.128 
			l-0.016,0 l0-32 l 0.016,0 l0-191.408 c0-17.592, 14.408-32, 32-32l 448,0 c 17.592,0, 32,14.408, 32,32L 512.008,352.264 C 512.008,369.856, 497.6,384.264, 480.008,384.264z
			 M 191.992,415.264c0,8.832, 7.168,16, 16,16l 96.216,0 c 8.832,0, 16-7.168, 16-16l0-31 L 191.992,384.264 L 191.992,415.264 z M 32.008,352.264l 448,0 l0-112.128 L 303.824,240.136 l0,16.376 
			c0,17.64-14.36,32-32,32l-31.872,0 c-17.64,0-32-14.36-32-32l0-16.376 L 32.008,240.136 L 32.008,352.264 z M 271.848,175.936l-31.904,0 L 239.944,256.512 l 31.872,0 L 271.848,175.936z
			 M 32.008,16.736L 32.008,208.144 l 175.936,0 l0-32.2 c0-17.64, 14.36-32, 32-32l 31.872,0 c 17.64,0, 32,14.36, 32,32l0,32.2 l 176.184,0 l0-191.408 L 32.008,16.736 z"  />
<glyph unicode="&#xe04c;" d="M 476.040,479.224L 264.52,421.928c-5.376-1.44-17.048-1.424-22.408,0.080L 36.040,479.112
			C 17.648,484.176-0.168,470.912-0.168,451.976l0-389.056 c0-16.048, 12.168-31.392, 27.656-35.704l 206.080-57.112c 5.512-1.528, 12.608-2.376, 19.968-2.376
			c 5.048,0, 12.504,0.392, 19.36,2.264l 211.512,57.296c 15.528,4.2, 27.752,19.512, 27.752,35.624L 512.16,451.976 C 512.168,470.896, 494.352,484.208, 476.040,479.224
			z M 240,1.528L 35.536,58.056c-1.544,0.424-3.704,3.248-3.704,4.856L 31.832,446.928 l 201.736-55.768c 1.952-0.544, 4.144-0.968, 6.432-1.328L 240,1.528 z
			 M 480.168,62.912c0-1.576-2.592-4.328-4.128-4.752L 272,2.896L 272,390.856 c 0.296,0.072, 0.6,0.112, 0.896,0.192l 207.264,56.064L 480.16,62.912 z
			 M 321,296.848c 1.44,0, 2.904,0.184, 4.344,0.592l 111.968,31.512c 8.512,2.408, 13.472,11.232, 11.080,19.736s-11.28,13.44-19.736,11.080
			l-111.968-31.512c-8.512-2.408-13.472-11.232-11.080-19.736C 307.592,301.456, 314.016,296.848, 321,296.848z M 321,200.848
			c 1.44,0, 2.904,0.184, 4.344,0.592l 111.968,31.512c 8.512,2.408, 13.472,11.232, 11.080,19.736s-11.28,13.44-19.736,11.080l-111.968-31.512
			c-8.512-2.408-13.472-11.232-11.080-19.728C 307.592,205.464, 314.016,200.848, 321,200.848z M 321,104.848
			c 1.44,0, 2.904,0.184, 4.344,0.592l 111.968,31.512c 8.512,2.408, 13.472,11.232, 11.080,19.736s-11.28,13.44-19.736,11.080l-111.968-31.512
			c-8.512-2.408-13.472-11.232-11.080-19.736C 307.592,109.464, 314.016,104.848, 321,104.848z M 197.312,328.256l-111.968,31.512
			c-8.456,2.36-17.344-2.576-19.736-11.080s 2.56-17.328, 11.080-19.736l 111.968-31.512c 1.44-0.408, 2.904-0.592, 4.344-0.592
			c 6.984,0, 13.408,4.608, 15.392,11.672C 210.784,317.016, 205.832,325.848, 197.312,328.256z M 197.312,232.256l-111.968,31.512
			c-8.456,2.36-17.344-2.576-19.736-11.080s 2.56-17.328, 11.080-19.736l 111.968-31.512c 1.44-0.408, 2.904-0.592, 4.344-0.592
			c 6.984,0, 13.408,4.608, 15.392,11.672C 210.784,221.016, 205.832,229.848, 197.312,232.256z M 197.312,136.256l-111.968,31.512
			c-8.456,2.36-17.344-2.576-19.736-11.080s 2.56-17.328, 11.080-19.736l 111.968-31.512c 1.44-0.408, 2.904-0.592, 4.344-0.592
			c 6.984,0, 13.408,4.608, 15.392,11.672C 210.784,125.024, 205.832,133.848, 197.312,136.256z"  />
<glyph unicode="&#xe04d;" d="M 507.832,338c-2.984,4.232-7.832,6.752-13,6.752L 444.96,344.752 L 342.392,432.168c-12.488,12.488-32.76,12.504-45.248,0L 196.32,344.752
			l-41.048,0 l-25.704,88.64c-10.080,34.904-34.032,38.672-43.856,38.672L 17.168,472.064 c-8.784,0-15.888-7.112-15.888-15.888s 7.112-15.888, 15.888-15.888l 68.528,0 
			c 2.168,0, 8.784,0, 13.296-15.592l 88.424-324.968c 1.92-6.856, 8.168-11.592, 15.296-11.592l 215.984,0 c 6.704,0, 12.688,4.2, 14.952,10.512
			l 76.128,224.84C 511.528,328.36, 510.8,333.784, 507.832,338z M 319.768,409.536l 76.016-64.792L 243.728,344.744 L 319.768,409.536z M 407.512,119.904L 214.768,119.904 
			l-50.576,193.064l 308.048,0 L 407.512,119.904z M 376,55.936c-22.096,0-40-17.904-40-40s 17.904-40, 40-40s 40,17.904, 40,40S 398.096,55.936, 376,55.936z
			 M 232,55.936c-22.096,0-40-17.904-40-40s 17.904-40, 40-40s 40,17.904, 40,40S 254.096,55.936, 232,55.936z"  />
<glyph unicode="&#xe04e;" d="M 507.832,338c-2.984,4.232-7.832,6.752-13,6.752L 155.264,344.752 l-25.704,88.64
			c-10.080,34.904-34.032,38.672-43.856,38.672L 17.168,472.064 c-8.784,0-15.888-7.112-15.888-15.888s 7.112-15.888, 15.888-15.888l 68.528,0 
			c 2.168,0, 8.784,0, 13.296-15.592l 88.424-324.968c 1.92-6.856, 8.168-11.592, 15.296-11.592l 215.984,0 c 6.704,0, 12.688,4.2, 14.952,10.512
			l 76.128,224.84C 511.528,328.36, 510.8,333.784, 507.832,338z M 407.512,119.904L 214.768,119.904 l-50.576,193.064l 308.048,0 L 407.512,119.904z M 376,55.936
			c-22.096,0-40-17.904-40-40s 17.904-40, 40-40s 40,17.904, 40,40S 398.096,55.936, 376,55.936z M 232,55.936c-22.096,0-40-17.904-40-40s 17.904-40, 40-40
			s 40,17.904, 40,40S 254.096,55.936, 232,55.936z"  />
<glyph unicode="&#xe04f;" d="M 432,400.648L 336.408,400.648 L 336.408,431.336 c0,26.472-21.528,48-48,48l-63.816,0 c-26.472,0-48-21.528-48-48l0-30.688 L 80,400.648 c-17.672,0-32-14.328-32-32l0-367.984 
			c0-17.672, 14.328-32, 32-32l 352,0 c 17.672,0, 32,14.328, 32,32L 464,368.648 C 464,386.32, 449.672,400.648, 432,400.648z M 208.592,431.336c0,8.832, 7.168,16, 16,16l 63.816,0 
			c 8.832,0, 16-7.168, 16-16l0-30.688 L 208.592,400.648 L 208.592,431.336 z M 432,0.664L 80,0.664 L 80,368.648 l 96.592,0 l0-32.92 c0,0-0.424-15.984, 15.904-15.984
			c 18,0, 16.096,15.984, 16.096,15.984l0,32.92 l 95.816,0 l0-32.92 c0,0-1.064-16.064, 15.936-16.064c 16,0, 16.064,16.064, 16.064,16.064l0,32.92 L 432,368.648 L 432,0.664 z
			"  />
<glyph unicode="&#xe050;" d="M 495.032,8.832c-0.168,0-0.36,0-0.544,0.016c-8.096,0.264-13.2,6.544-13.888,14.608c-0.544,5.936-16.984,149.544-241.128,149.392
	l0-91.832 c0-6.184-3.56-11.832-9.168-14.472c-5.544-2.656-12.216-1.84-16.984,2.112L 5.832,240.544c-3.72,3.048-5.856,7.592-5.84,12.392
	s 2.168,9.344, 5.888,12.376L 213.36,435.592c 4.784,3.904, 11.392,4.656, 16.968,2.048c 5.576-2.656, 9.144-8.28, 9.144-14.456l0-89.816 
	c 92.984-2.952, 165.496-32.856, 212.168-87.488c 75.968-88.888, 59.016-218.080, 58.216-223.456C 508.672,14.592, 502.92,8.832, 495.032,8.832z
	 M 223.472,205.096c 0.016,0, 0.032,0, 0.032,0c 160.112-0.096, 221.296-54.16, 256.232-101.904c-5.112,38.248-20.032,84.36-52.504,122.016
	c-43.168,50.048-112.72,76.424-203.768,76.424c-8.84,0-16,7.16-16,16l0,71.888 L 41.248,252.84l 166.216-137.952l0,74.2 
	c0,4.248, 1.688,8.328, 4.704,11.328C 215.168,203.408, 219.232,205.096, 223.472,205.096z"  />
<glyph unicode="&#xe051;" d="M 16.968,8.832c 0.168,0, 0.36,0, 0.544,0.016c 8.096,0.264, 13.2,6.544, 13.888,14.608c 0.544,5.936, 16.488,149.544, 240.624,149.392
	l 0.504-91.832c0-6.184, 3.56-11.832, 9.168-14.472c 5.544-2.656, 12.216-1.84, 16.984,2.112l 207.488,171.888
	c 3.72,3.048, 5.856,7.592, 5.84,12.392s-2.168,9.344-5.888,12.376L 298.64,435.592c-4.784,3.904-11.392,4.656-16.968,2.048
	c-5.576-2.656-9.144-8.28-9.144-14.456l-0.504-89.816C 179.048,330.424, 107.040,300.512, 60.36,245.888
	c-75.968-88.888-59.016-218.080-58.216-223.456C 3.328,14.592, 9.080,8.832, 16.968,8.832z M 288.528,205.096c-0.016,0-0.032,0-0.032,0
	C 128.392,205, 67.2,150.936, 32.264,103.184c 5.112,38.248, 20.032,84.36, 52.504,122.016c 43.168,50.048, 112.72,76.424, 203.768,76.424
	c 8.84,0, 16,7.16, 16,16l0,71.888 l 166.216-136.672L 304.528,114.888l0,74.2 c0,4.248-1.688,8.328-4.704,11.328
	C 296.832,203.408, 292.768,205.096, 288.528,205.096z"  />
<glyph unicode="&#xe052;" d="M 503.184,372.032c-5.392,2.488-11.792,1.544-16.28-2.424l-80.656-72.448l-72.816,74.704l 72.096,83.264
	c 3.92,4.528, 4.872,10.768, 2.432,16.256s-7.832,8.848-13.76,8.848l-4.344,0 c-44.56,0-121.488-3.832-155.832-38.672l-6.928-6.88
	c-36.64-37.384-43.144-98.688-23.84-145.288L 18.616,100.944c-24.896-25.24-24.896-66.16,0-91.408l 22.536-22.848
	C 53.6-25.928, 69.92-32.24, 86.24-32.24c 16.312,0, 32.632,6.312, 45.072,18.928l 187.36,188.864c 17.72-9.576, 42-15.832, 62.392-15.832
	c 32.688,0, 63.672,13.184, 87.264,37.128l 6.832,6.92c 37.304,37.824, 36.728,118.648, 36.896,154.208C 512.072,364.024, 508.592,369.52, 503.184,372.032z
	 M 452.832,225.496l-5.936-6.936c-17.872-18.136-41.248-26.824-65.832-26.824c-12.16,0-28.544,2.288-39.608,6.896
	c-10,4.152-19.288,10.144-27.6,17.712L 108.768,9.536c-6.016-6.112-14.016-9.472-22.528-9.472c-8.512,0-16.52,3.36-22.544,9.472
	l-22.528,22.84c-12.432,12.608-12.432,33.112-0.008,45.72l 200.392,204.432c-6.72,9.784-11.296,20.448-14.024,31.488L 227.52,314.016 
	c-7.712,31.192-3.216,74.304, 21.008,99.024l 6.896,6.96c 20.776,21.080, 74.728,27.312, 104.6,29.152l-58.68-67.768
	c-5.248-6.064-4.984-15.2, 0.608-20.936L 394.72,265.28c 5.624-5.792, 14.72-6.128, 20.776-0.76l 65.304,58.816
	C 478.856,291.656, 472.704,245.648, 452.832,225.496z"  />
</font>
</defs>
</svg>
